<mxfile host="Electron" agent="Mozilla/5.0 (Windows NT 10.0; Win64; x64) AppleWebKit/537.36 (KHTML, like Gecko) draw.io/26.2.2 Chrome/134.0.6998.178 Electron/35.1.2 Safari/537.36" version="26.2.2" pages="2">
  <diagram id="jQpJzo6FXHUrjDl31oXP" name="Page-1">
    <mxGraphModel dx="1032" dy="1861" grid="1" gridSize="10" guides="1" tooltips="1" connect="1" arrows="1" fold="1" page="1" pageScale="1" pageWidth="850" pageHeight="1100" math="0" shadow="0">
      <root>
        <mxCell id="0" />
        <mxCell id="1" parent="0" />
        <mxCell id="UrNAwTuo9XHeN6puUlUN-80" value="" style="endArrow=none;dashed=1;html=1;align=center;entryX=0;entryY=1;entryDx=0;entryDy=0;" edge="1" parent="1" target="UrNAwTuo9XHeN6puUlUN-53">
          <mxGeometry width="50" height="50" relative="1" as="geometry">
            <mxPoint x="138" y="1612" as="sourcePoint" />
            <mxPoint x="220" y="1570" as="targetPoint" />
          </mxGeometry>
        </mxCell>
        <mxCell id="yQAFJQduz_WGNOiuuZG3-3" value="main.o" style="shape=image;verticalLabelPosition=middle;labelBackgroundColor=#ffffff;verticalAlign=middle;aspect=fixed;imageAspect=0;image=data:image/svg+xml,PHN2ZyB4bWxucz0iaHR0cDovL3d3dy53My5vcmcvMjAwMC9zdmciIHZpZXdCb3g9IjAgMCAyNCAyNCI+PHBhdGggZD0iTTYgMkM0Ljg5IDIgNCAyLjkgNCA0VjIwQzQgMjEuMTEgNC44OSAyMiA2IDIySDEyVjIwSDZWNEgxM1Y5SDE4VjEySDIwVjhMMTQgMk0xOCAxNEMxNy44NyAxNCAxNy43NiAxNC4wOSAxNy43NCAxNC4yMUwxNy41NSAxNS41M0MxNy4yNSAxNS42NiAxNi45NiAxNS44MiAxNi43IDE2TDE1LjQ2IDE1LjVDMTUuMzUgMTUuNSAxNS4yMiAxNS41IDE1LjE1IDE1LjYzTDE0LjE1IDE3LjM2QzE0LjA5IDE3LjQ3IDE0LjExIDE3LjYgMTQuMjEgMTcuNjhMMTUuMjcgMTguNUMxNS4yNSAxOC42NyAxNS4yNCAxOC44MyAxNS4yNCAxOUMxNS4yNCAxOS4xNyAxNS4yNSAxOS4zMyAxNS4yNyAxOS41TDE0LjIxIDIwLjMyQzE0LjEyIDIwLjQgMTQuMDkgMjAuNTMgMTQuMTUgMjAuNjRMMTUuMTUgMjIuMzdDMTUuMjEgMjIuNSAxNS4zNCAyMi41IDE1LjQ2IDIyLjVMMTYuNyAyMkMxNi45NiAyMi4xOCAxNy4yNCAyMi4zNSAxNy41NSAyMi40N0wxNy43NCAyMy43OUMxNy43NiAyMy45MSAxNy44NiAyNCAxOCAyNEgyMEMyMC4xMSAyNCAyMC4yMiAyMy45MSAyMC4yNCAyMy43OUwyMC40MyAyMi40N0MyMC43MyAyMi4zNCAyMSAyMi4xOCAyMS4yNyAyMkwyMi41IDIyLjVDMjIuNjMgMjIuNSAyMi43NiAyMi41IDIyLjgzIDIyLjM3TDIzLjgzIDIwLjY0QzIzLjg5IDIwLjUzIDIzLjg2IDIwLjQgMjMuNzcgMjAuMzJMMjIuNyAxOS41QzIyLjcyIDE5LjMzIDIyLjc0IDE5LjE3IDIyLjc0IDE5QzIyLjc0IDE4LjgzIDIyLjczIDE4LjY3IDIyLjcgMTguNUwyMy43NiAxNy42OEMyMy44NSAxNy42IDIzLjg4IDE3LjQ3IDIzLjgyIDE3LjM2TDIyLjgyIDE1LjYzQzIyLjc2IDE1LjUgMjIuNjMgMTUuNSAyMi41IDE1LjVMMjEuMjcgMTZDMjEgMTUuODIgMjAuNzMgMTUuNjUgMjAuNDIgMTUuNTNMMjAuMjMgMTQuMjFDMjAuMjIgMTQuMDkgMjAuMTEgMTQgMjAgMTRNMTkgMTcuNUMxOS44MyAxNy41IDIwLjUgMTguMTcgMjAuNSAxOUMyMC41IDE5LjgzIDE5LjgzIDIwLjUgMTkgMjAuNUMxOC4xNiAyMC41IDE3LjUgMTkuODMgMTcuNSAxOUMxNy41IDE4LjE3IDE4LjE3IDE3LjUgMTkgMTcuNVoiLz48L3N2Zz4=;labelPosition=left;align=right;" parent="1" vertex="1">
          <mxGeometry x="120" y="240" width="60" height="60" as="geometry" />
        </mxCell>
        <mxCell id="yQAFJQduz_WGNOiuuZG3-4" value="library.h" style="shape=image;verticalLabelPosition=top;labelBackgroundColor=#ffffff;verticalAlign=bottom;aspect=fixed;imageAspect=0;image=data:image/svg+xml,PHN2ZyB4bWxucz0iaHR0cDovL3d3dy53My5vcmcvMjAwMC9zdmciIHZpZXdCb3g9IjAgMCAyNCAyNCI+PHBhdGggZD0iTTE0IDJINkM0Ljg5IDIgNCAyLjkgNCA0VjIwQzQgMjEuMTEgNC44OSAyMiA2IDIySDE4QzE5LjExIDIyIDIwIDIxLjExIDIwIDIwVjhMMTQgMk0xOCAyMEg2VjRIMTNWOUgxOFYyME0xNSAxMS45M1YxOUg3LjkzTDEwLjA1IDE2Ljg4TDcuMjIgMTQuMDVMMTAuMDUgMTEuMjJMMTIuODggMTQuMDVMMTUgMTEuOTNaIi8+PC9zdmc+;movable=1;resizable=1;rotatable=1;deletable=1;editable=1;connectable=1;labelPosition=center;align=center;" parent="1" vertex="1">
          <mxGeometry x="260" y="480" width="60" height="60" as="geometry" />
        </mxCell>
        <mxCell id="yQAFJQduz_WGNOiuuZG3-6" value="" style="endArrow=classic;html=1;" parent="1" source="yQAFJQduz_WGNOiuuZG3-9" target="yQAFJQduz_WGNOiuuZG3-3" edge="1">
          <mxGeometry width="50" height="50" relative="1" as="geometry">
            <mxPoint x="150" y="190" as="sourcePoint" />
            <mxPoint x="220" y="300" as="targetPoint" />
          </mxGeometry>
        </mxCell>
        <mxCell id="yQAFJQduz_WGNOiuuZG3-7" value="program.exe" style="shape=image;verticalLabelPosition=middle;labelBackgroundColor=#ffffff;verticalAlign=middle;aspect=fixed;imageAspect=0;image=data:image/svg+xml,PHN2ZyB4bWxucz0iaHR0cDovL3d3dy53My5vcmcvMjAwMC9zdmciIHZpZXdCb3g9IjAgMCAyNCAyNCI+PHBhdGggZD0iTTYgMkM0Ljg5IDIgNCAyLjkgNCA0VjIwQzQgMjEuMTEgNC44OSAyMiA2IDIySDEyVjIwSDZWNEgxM1Y5SDE4VjEySDIwVjhMMTQgMk0xOCAxNEMxNy44NyAxNCAxNy43NiAxNC4wOSAxNy43NCAxNC4yMUwxNy41NSAxNS41M0MxNy4yNSAxNS42NiAxNi45NiAxNS44MiAxNi43IDE2TDE1LjQ2IDE1LjVDMTUuMzUgMTUuNSAxNS4yMiAxNS41IDE1LjE1IDE1LjYzTDE0LjE1IDE3LjM2QzE0LjA5IDE3LjQ3IDE0LjExIDE3LjYgMTQuMjEgMTcuNjhMMTUuMjcgMTguNUMxNS4yNSAxOC42NyAxNS4yNCAxOC44MyAxNS4yNCAxOUMxNS4yNCAxOS4xNyAxNS4yNSAxOS4zMyAxNS4yNyAxOS41TDE0LjIxIDIwLjMyQzE0LjEyIDIwLjQgMTQuMDkgMjAuNTMgMTQuMTUgMjAuNjRMMTUuMTUgMjIuMzdDMTUuMjEgMjIuNSAxNS4zNCAyMi41IDE1LjQ2IDIyLjVMMTYuNyAyMkMxNi45NiAyMi4xOCAxNy4yNCAyMi4zNSAxNy41NSAyMi40N0wxNy43NCAyMy43OUMxNy43NiAyMy45MSAxNy44NiAyNCAxOCAyNEgyMEMyMC4xMSAyNCAyMC4yMiAyMy45MSAyMC4yNCAyMy43OUwyMC40MyAyMi40N0MyMC43MyAyMi4zNCAyMSAyMi4xOCAyMS4yNyAyMkwyMi41IDIyLjVDMjIuNjMgMjIuNSAyMi43NiAyMi41IDIyLjgzIDIyLjM3TDIzLjgzIDIwLjY0QzIzLjg5IDIwLjUzIDIzLjg2IDIwLjQgMjMuNzcgMjAuMzJMMjIuNyAxOS41QzIyLjcyIDE5LjMzIDIyLjc0IDE5LjE3IDIyLjc0IDE5QzIyLjc0IDE4LjgzIDIyLjczIDE4LjY3IDIyLjcgMTguNUwyMy43NiAxNy42OEMyMy44NSAxNy42IDIzLjg4IDE3LjQ3IDIzLjgyIDE3LjM2TDIyLjgyIDE1LjYzQzIyLjc2IDE1LjUgMjIuNjMgMTUuNSAyMi41IDE1LjVMMjEuMjcgMTZDMjEgMTUuODIgMjAuNzMgMTUuNjUgMjAuNDIgMTUuNTNMMjAuMjMgMTQuMjFDMjAuMjIgMTQuMDkgMjAuMTEgMTQgMjAgMTRNMTkgMTcuNUMxOS44MyAxNy41IDIwLjUgMTguMTcgMjAuNSAxOUMyMC41IDE5LjgzIDE5LjgzIDIwLjUgMTkgMjAuNUMxOC4xNiAyMC41IDE3LjUgMTkuODMgMTcuNSAxOUMxNy41IDE4LjE3IDE4LjE3IDE3LjUgMTkgMTcuNVoiLz48L3N2Zz4=;labelPosition=left;align=right;" parent="1" vertex="1">
          <mxGeometry x="120" y="350" width="60" height="60" as="geometry" />
        </mxCell>
        <mxCell id="yQAFJQduz_WGNOiuuZG3-9" value="main.cpp" style="shape=image;verticalLabelPosition=middle;labelBackgroundColor=#ffffff;verticalAlign=middle;aspect=fixed;imageAspect=0;image=data:image/svg+xml,PHN2ZyB4bWxucz0iaHR0cDovL3d3dy53My5vcmcvMjAwMC9zdmciIHZpZXdCb3g9IjAgMCAyNCAyNCI+PHBhdGggZD0iTTYsMkEyLDIgMCAwLDAgNCw0VjIwQTIsMiAwIDAsMCA2LDIySDE4QTIsMiAwIDAsMCAyMCwyMFY4TDE0LDJINk02LDRIMTNWOUgxOFYyMEg2VjRNOCwxMlYxNEgxNlYxMkg4TTgsMTZWMThIMTNWMTZIOFoiLz48L3N2Zz4=;labelPosition=left;align=right;" parent="1" vertex="1">
          <mxGeometry x="120" y="120" width="60" height="60" as="geometry" />
        </mxCell>
        <mxCell id="yQAFJQduz_WGNOiuuZG3-10" value="" style="endArrow=classic;html=1;exitX=0.5;exitY=1;exitDx=0;exitDy=0;" parent="1" source="yQAFJQduz_WGNOiuuZG3-3" target="yQAFJQduz_WGNOiuuZG3-7" edge="1">
          <mxGeometry width="50" height="50" relative="1" as="geometry">
            <mxPoint x="160" y="200" as="sourcePoint" />
            <mxPoint x="160" y="240" as="targetPoint" />
            <mxPoint as="offset" />
          </mxGeometry>
        </mxCell>
        <mxCell id="yQAFJQduz_WGNOiuuZG3-11" value="main.o" style="shape=image;verticalLabelPosition=middle;labelBackgroundColor=#ffffff;verticalAlign=middle;aspect=fixed;imageAspect=0;image=data:image/svg+xml,PHN2ZyB4bWxucz0iaHR0cDovL3d3dy53My5vcmcvMjAwMC9zdmciIHZpZXdCb3g9IjAgMCAyNCAyNCI+PHBhdGggZD0iTTYgMkM0Ljg5IDIgNCAyLjkgNCA0VjIwQzQgMjEuMTEgNC44OSAyMiA2IDIySDEyVjIwSDZWNEgxM1Y5SDE4VjEySDIwVjhMMTQgMk0xOCAxNEMxNy44NyAxNCAxNy43NiAxNC4wOSAxNy43NCAxNC4yMUwxNy41NSAxNS41M0MxNy4yNSAxNS42NiAxNi45NiAxNS44MiAxNi43IDE2TDE1LjQ2IDE1LjVDMTUuMzUgMTUuNSAxNS4yMiAxNS41IDE1LjE1IDE1LjYzTDE0LjE1IDE3LjM2QzE0LjA5IDE3LjQ3IDE0LjExIDE3LjYgMTQuMjEgMTcuNjhMMTUuMjcgMTguNUMxNS4yNSAxOC42NyAxNS4yNCAxOC44MyAxNS4yNCAxOUMxNS4yNCAxOS4xNyAxNS4yNSAxOS4zMyAxNS4yNyAxOS41TDE0LjIxIDIwLjMyQzE0LjEyIDIwLjQgMTQuMDkgMjAuNTMgMTQuMTUgMjAuNjRMMTUuMTUgMjIuMzdDMTUuMjEgMjIuNSAxNS4zNCAyMi41IDE1LjQ2IDIyLjVMMTYuNyAyMkMxNi45NiAyMi4xOCAxNy4yNCAyMi4zNSAxNy41NSAyMi40N0wxNy43NCAyMy43OUMxNy43NiAyMy45MSAxNy44NiAyNCAxOCAyNEgyMEMyMC4xMSAyNCAyMC4yMiAyMy45MSAyMC4yNCAyMy43OUwyMC40MyAyMi40N0MyMC43MyAyMi4zNCAyMSAyMi4xOCAyMS4yNyAyMkwyMi41IDIyLjVDMjIuNjMgMjIuNSAyMi43NiAyMi41IDIyLjgzIDIyLjM3TDIzLjgzIDIwLjY0QzIzLjg5IDIwLjUzIDIzLjg2IDIwLjQgMjMuNzcgMjAuMzJMMjIuNyAxOS41QzIyLjcyIDE5LjMzIDIyLjc0IDE5LjE3IDIyLjc0IDE5QzIyLjc0IDE4LjgzIDIyLjczIDE4LjY3IDIyLjcgMTguNUwyMy43NiAxNy42OEMyMy44NSAxNy42IDIzLjg4IDE3LjQ3IDIzLjgyIDE3LjM2TDIyLjgyIDE1LjYzQzIyLjc2IDE1LjUgMjIuNjMgMTUuNSAyMi41IDE1LjVMMjEuMjcgMTZDMjEgMTUuODIgMjAuNzMgMTUuNjUgMjAuNDIgMTUuNTNMMjAuMjMgMTQuMjFDMjAuMjIgMTQuMDkgMjAuMTEgMTQgMjAgMTRNMTkgMTcuNUMxOS44MyAxNy41IDIwLjUgMTguMTcgMjAuNSAxOUMyMC41IDE5LjgzIDE5LjgzIDIwLjUgMTkgMjAuNUMxOC4xNiAyMC41IDE3LjUgMTkuODMgMTcuNSAxOUMxNy41IDE4LjE3IDE4LjE3IDE3LjUgMTkgMTcuNVoiLz48L3N2Zz4=;labelPosition=left;align=right;" parent="1" vertex="1">
          <mxGeometry x="365" y="230" width="60" height="60" as="geometry" />
        </mxCell>
        <mxCell id="yQAFJQduz_WGNOiuuZG3-12" value="" style="endArrow=classic;html=1;" parent="1" source="yQAFJQduz_WGNOiuuZG3-14" target="yQAFJQduz_WGNOiuuZG3-11" edge="1">
          <mxGeometry width="50" height="50" relative="1" as="geometry">
            <mxPoint x="384" y="180" as="sourcePoint" />
            <mxPoint x="454" y="290" as="targetPoint" />
          </mxGeometry>
        </mxCell>
        <mxCell id="yQAFJQduz_WGNOiuuZG3-13" value="program.exe" style="shape=image;verticalLabelPosition=middle;labelBackgroundColor=#ffffff;verticalAlign=middle;aspect=fixed;imageAspect=0;image=data:image/svg+xml,PHN2ZyB4bWxucz0iaHR0cDovL3d3dy53My5vcmcvMjAwMC9zdmciIHZpZXdCb3g9IjAgMCAyNCAyNCI+PHBhdGggZD0iTTYgMkM0Ljg5IDIgNCAyLjkgNCA0VjIwQzQgMjEuMTEgNC44OSAyMiA2IDIySDEyVjIwSDZWNEgxM1Y5SDE4VjEySDIwVjhMMTQgMk0xOCAxNEMxNy44NyAxNCAxNy43NiAxNC4wOSAxNy43NCAxNC4yMUwxNy41NSAxNS41M0MxNy4yNSAxNS42NiAxNi45NiAxNS44MiAxNi43IDE2TDE1LjQ2IDE1LjVDMTUuMzUgMTUuNSAxNS4yMiAxNS41IDE1LjE1IDE1LjYzTDE0LjE1IDE3LjM2QzE0LjA5IDE3LjQ3IDE0LjExIDE3LjYgMTQuMjEgMTcuNjhMMTUuMjcgMTguNUMxNS4yNSAxOC42NyAxNS4yNCAxOC44MyAxNS4yNCAxOUMxNS4yNCAxOS4xNyAxNS4yNSAxOS4zMyAxNS4yNyAxOS41TDE0LjIxIDIwLjMyQzE0LjEyIDIwLjQgMTQuMDkgMjAuNTMgMTQuMTUgMjAuNjRMMTUuMTUgMjIuMzdDMTUuMjEgMjIuNSAxNS4zNCAyMi41IDE1LjQ2IDIyLjVMMTYuNyAyMkMxNi45NiAyMi4xOCAxNy4yNCAyMi4zNSAxNy41NSAyMi40N0wxNy43NCAyMy43OUMxNy43NiAyMy45MSAxNy44NiAyNCAxOCAyNEgyMEMyMC4xMSAyNCAyMC4yMiAyMy45MSAyMC4yNCAyMy43OUwyMC40MyAyMi40N0MyMC43MyAyMi4zNCAyMSAyMi4xOCAyMS4yNyAyMkwyMi41IDIyLjVDMjIuNjMgMjIuNSAyMi43NiAyMi41IDIyLjgzIDIyLjM3TDIzLjgzIDIwLjY0QzIzLjg5IDIwLjUzIDIzLjg2IDIwLjQgMjMuNzcgMjAuMzJMMjIuNyAxOS41QzIyLjcyIDE5LjMzIDIyLjc0IDE5LjE3IDIyLjc0IDE5QzIyLjc0IDE4LjgzIDIyLjczIDE4LjY3IDIyLjcgMTguNUwyMy43NiAxNy42OEMyMy44NSAxNy42IDIzLjg4IDE3LjQ3IDIzLjgyIDE3LjM2TDIyLjgyIDE1LjYzQzIyLjc2IDE1LjUgMjIuNjMgMTUuNSAyMi41IDE1LjVMMjEuMjcgMTZDMjEgMTUuODIgMjAuNzMgMTUuNjUgMjAuNDIgMTUuNTNMMjAuMjMgMTQuMjFDMjAuMjIgMTQuMDkgMjAuMTEgMTQgMjAgMTRNMTkgMTcuNUMxOS44MyAxNy41IDIwLjUgMTguMTcgMjAuNSAxOUMyMC41IDE5LjgzIDE5LjgzIDIwLjUgMTkgMjAuNUMxOC4xNiAyMC41IDE3LjUgMTkuODMgMTcuNSAxOUMxNy41IDE4LjE3IDE4LjE3IDE3LjUgMTkgMTcuNVoiLz48L3N2Zz4=;labelPosition=left;align=right;" parent="1" vertex="1">
          <mxGeometry x="414" y="350" width="60" height="60" as="geometry" />
        </mxCell>
        <mxCell id="yQAFJQduz_WGNOiuuZG3-14" value="main.cpp" style="shape=image;verticalLabelPosition=middle;labelBackgroundColor=#ffffff;verticalAlign=middle;aspect=fixed;imageAspect=0;image=data:image/svg+xml,PHN2ZyB4bWxucz0iaHR0cDovL3d3dy53My5vcmcvMjAwMC9zdmciIHZpZXdCb3g9IjAgMCAyNCAyNCI+PHBhdGggZD0iTTYsMkEyLDIgMCAwLDAgNCw0VjIwQTIsMiAwIDAsMCA2LDIySDE4QTIsMiAwIDAsMCAyMCwyMFY4TDE0LDJINk02LDRIMTNWOUgxOFYyMEg2VjRNOCwxMlYxNEgxNlYxMkg4TTgsMTZWMThIMTNWMTZIOFoiLz48L3N2Zz4=;labelPosition=left;align=right;" parent="1" vertex="1">
          <mxGeometry x="365" y="120" width="60" height="60" as="geometry" />
        </mxCell>
        <mxCell id="yQAFJQduz_WGNOiuuZG3-15" value="" style="endArrow=classic;html=1;exitX=0.5;exitY=1;exitDx=0;exitDy=0;entryX=0.25;entryY=0;entryDx=0;entryDy=0;" parent="1" source="yQAFJQduz_WGNOiuuZG3-11" target="yQAFJQduz_WGNOiuuZG3-13" edge="1">
          <mxGeometry width="50" height="50" relative="1" as="geometry">
            <mxPoint x="454" y="190" as="sourcePoint" />
            <mxPoint x="454" y="230" as="targetPoint" />
            <mxPoint as="offset" />
          </mxGeometry>
        </mxCell>
        <mxCell id="yQAFJQduz_WGNOiuuZG3-20" value="library.o" style="shape=image;verticalLabelPosition=middle;labelBackgroundColor=#ffffff;verticalAlign=middle;aspect=fixed;imageAspect=0;image=data:image/svg+xml,PHN2ZyB4bWxucz0iaHR0cDovL3d3dy53My5vcmcvMjAwMC9zdmciIHZpZXdCb3g9IjAgMCAyNCAyNCI+PHBhdGggZD0iTTYgMkM0Ljg5IDIgNCAyLjkgNCA0VjIwQzQgMjEuMTEgNC44OSAyMiA2IDIySDEyVjIwSDZWNEgxM1Y5SDE4VjEySDIwVjhMMTQgMk0xOCAxNEMxNy44NyAxNCAxNy43NiAxNC4wOSAxNy43NCAxNC4yMUwxNy41NSAxNS41M0MxNy4yNSAxNS42NiAxNi45NiAxNS44MiAxNi43IDE2TDE1LjQ2IDE1LjVDMTUuMzUgMTUuNSAxNS4yMiAxNS41IDE1LjE1IDE1LjYzTDE0LjE1IDE3LjM2QzE0LjA5IDE3LjQ3IDE0LjExIDE3LjYgMTQuMjEgMTcuNjhMMTUuMjcgMTguNUMxNS4yNSAxOC42NyAxNS4yNCAxOC44MyAxNS4yNCAxOUMxNS4yNCAxOS4xNyAxNS4yNSAxOS4zMyAxNS4yNyAxOS41TDE0LjIxIDIwLjMyQzE0LjEyIDIwLjQgMTQuMDkgMjAuNTMgMTQuMTUgMjAuNjRMMTUuMTUgMjIuMzdDMTUuMjEgMjIuNSAxNS4zNCAyMi41IDE1LjQ2IDIyLjVMMTYuNyAyMkMxNi45NiAyMi4xOCAxNy4yNCAyMi4zNSAxNy41NSAyMi40N0wxNy43NCAyMy43OUMxNy43NiAyMy45MSAxNy44NiAyNCAxOCAyNEgyMEMyMC4xMSAyNCAyMC4yMiAyMy45MSAyMC4yNCAyMy43OUwyMC40MyAyMi40N0MyMC43MyAyMi4zNCAyMSAyMi4xOCAyMS4yNyAyMkwyMi41IDIyLjVDMjIuNjMgMjIuNSAyMi43NiAyMi41IDIyLjgzIDIyLjM3TDIzLjgzIDIwLjY0QzIzLjg5IDIwLjUzIDIzLjg2IDIwLjQgMjMuNzcgMjAuMzJMMjIuNyAxOS41QzIyLjcyIDE5LjMzIDIyLjc0IDE5LjE3IDIyLjc0IDE5QzIyLjc0IDE4LjgzIDIyLjczIDE4LjY3IDIyLjcgMTguNUwyMy43NiAxNy42OEMyMy44NSAxNy42IDIzLjg4IDE3LjQ3IDIzLjgyIDE3LjM2TDIyLjgyIDE1LjYzQzIyLjc2IDE1LjUgMjIuNjMgMTUuNSAyMi41IDE1LjVMMjEuMjcgMTZDMjEgMTUuODIgMjAuNzMgMTUuNjUgMjAuNDIgMTUuNTNMMjAuMjMgMTQuMjFDMjAuMjIgMTQuMDkgMjAuMTEgMTQgMjAgMTRNMTkgMTcuNUMxOS44MyAxNy41IDIwLjUgMTguMTcgMjAuNSAxOUMyMC41IDE5LjgzIDE5LjgzIDIwLjUgMTkgMjAuNUMxOC4xNiAyMC41IDE3LjUgMTkuODMgMTcuNSAxOUMxNy41IDE4LjE3IDE4LjE3IDE3LjUgMTkgMTcuNVoiLz48L3N2Zz4=;labelPosition=right;align=left;" parent="1" vertex="1">
          <mxGeometry x="460" y="230" width="60" height="60" as="geometry" />
        </mxCell>
        <mxCell id="yQAFJQduz_WGNOiuuZG3-21" value="" style="endArrow=classic;html=1;labelPosition=center;verticalLabelPosition=middle;align=center;verticalAlign=middle;" parent="1" source="yQAFJQduz_WGNOiuuZG3-22" target="yQAFJQduz_WGNOiuuZG3-20" edge="1">
          <mxGeometry width="50" height="50" relative="1" as="geometry">
            <mxPoint x="490" y="180" as="sourcePoint" />
            <mxPoint x="560" y="290" as="targetPoint" />
            <mxPoint as="offset" />
          </mxGeometry>
        </mxCell>
        <mxCell id="yQAFJQduz_WGNOiuuZG3-22" value="library.cpp" style="shape=image;verticalLabelPosition=middle;labelBackgroundColor=#ffffff;verticalAlign=middle;aspect=fixed;imageAspect=0;image=data:image/svg+xml,PHN2ZyB4bWxucz0iaHR0cDovL3d3dy53My5vcmcvMjAwMC9zdmciIHZpZXdCb3g9IjAgMCAyNCAyNCI+PHBhdGggZD0iTTYsMkEyLDIgMCAwLDAgNCw0VjIwQTIsMiAwIDAsMCA2LDIySDE4QTIsMiAwIDAsMCAyMCwyMFY4TDE0LDJINk02LDRIMTNWOUgxOFYyMEg2VjRNOCwxMlYxNEgxNlYxMkg4TTgsMTZWMThIMTNWMTZIOFoiLz48L3N2Zz4=;labelPosition=right;align=left;" parent="1" vertex="1">
          <mxGeometry x="460" y="120" width="60" height="60" as="geometry" />
        </mxCell>
        <mxCell id="yQAFJQduz_WGNOiuuZG3-23" value="" style="endArrow=classic;html=1;exitX=0.5;exitY=1;exitDx=0;exitDy=0;labelPosition=center;verticalLabelPosition=middle;align=center;verticalAlign=middle;entryX=0.75;entryY=0;entryDx=0;entryDy=0;" parent="1" source="yQAFJQduz_WGNOiuuZG3-20" target="yQAFJQduz_WGNOiuuZG3-13" edge="1">
          <mxGeometry x="0.0331" width="50" height="50" relative="1" as="geometry">
            <mxPoint x="540" y="190" as="sourcePoint" />
            <mxPoint x="530" y="350" as="targetPoint" />
            <mxPoint as="offset" />
          </mxGeometry>
        </mxCell>
        <mxCell id="yQAFJQduz_WGNOiuuZG3-26" value="main.o" style="shape=image;verticalLabelPosition=middle;labelBackgroundColor=#ffffff;verticalAlign=middle;aspect=fixed;imageAspect=0;image=data:image/svg+xml,PHN2ZyB4bWxucz0iaHR0cDovL3d3dy53My5vcmcvMjAwMC9zdmciIHZpZXdCb3g9IjAgMCAyNCAyNCI+PHBhdGggZD0iTTYgMkM0Ljg5IDIgNCAyLjkgNCA0VjIwQzQgMjEuMTEgNC44OSAyMiA2IDIySDEyVjIwSDZWNEgxM1Y5SDE4VjEySDIwVjhMMTQgMk0xOCAxNEMxNy44NyAxNCAxNy43NiAxNC4wOSAxNy43NCAxNC4yMUwxNy41NSAxNS41M0MxNy4yNSAxNS42NiAxNi45NiAxNS44MiAxNi43IDE2TDE1LjQ2IDE1LjVDMTUuMzUgMTUuNSAxNS4yMiAxNS41IDE1LjE1IDE1LjYzTDE0LjE1IDE3LjM2QzE0LjA5IDE3LjQ3IDE0LjExIDE3LjYgMTQuMjEgMTcuNjhMMTUuMjcgMTguNUMxNS4yNSAxOC42NyAxNS4yNCAxOC44MyAxNS4yNCAxOUMxNS4yNCAxOS4xNyAxNS4yNSAxOS4zMyAxNS4yNyAxOS41TDE0LjIxIDIwLjMyQzE0LjEyIDIwLjQgMTQuMDkgMjAuNTMgMTQuMTUgMjAuNjRMMTUuMTUgMjIuMzdDMTUuMjEgMjIuNSAxNS4zNCAyMi41IDE1LjQ2IDIyLjVMMTYuNyAyMkMxNi45NiAyMi4xOCAxNy4yNCAyMi4zNSAxNy41NSAyMi40N0wxNy43NCAyMy43OUMxNy43NiAyMy45MSAxNy44NiAyNCAxOCAyNEgyMEMyMC4xMSAyNCAyMC4yMiAyMy45MSAyMC4yNCAyMy43OUwyMC40MyAyMi40N0MyMC43MyAyMi4zNCAyMSAyMi4xOCAyMS4yNyAyMkwyMi41IDIyLjVDMjIuNjMgMjIuNSAyMi43NiAyMi41IDIyLjgzIDIyLjM3TDIzLjgzIDIwLjY0QzIzLjg5IDIwLjUzIDIzLjg2IDIwLjQgMjMuNzcgMjAuMzJMMjIuNyAxOS41QzIyLjcyIDE5LjMzIDIyLjc0IDE5LjE3IDIyLjc0IDE5QzIyLjc0IDE4LjgzIDIyLjczIDE4LjY3IDIyLjcgMTguNUwyMy43NiAxNy42OEMyMy44NSAxNy42IDIzLjg4IDE3LjQ3IDIzLjgyIDE3LjM2TDIyLjgyIDE1LjYzQzIyLjc2IDE1LjUgMjIuNjMgMTUuNSAyMi41IDE1LjVMMjEuMjcgMTZDMjEgMTUuODIgMjAuNzMgMTUuNjUgMjAuNDIgMTUuNTNMMjAuMjMgMTQuMjFDMjAuMjIgMTQuMDkgMjAuMTEgMTQgMjAgMTRNMTkgMTcuNUMxOS44MyAxNy41IDIwLjUgMTguMTcgMjAuNSAxOUMyMC41IDE5LjgzIDE5LjgzIDIwLjUgMTkgMjAuNUMxOC4xNiAyMC41IDE3LjUgMTkuODMgMTcuNSAxOUMxNy41IDE4LjE3IDE4LjE3IDE3LjUgMTkgMTcuNVoiLz48L3N2Zz4=;labelPosition=left;align=right;" parent="1" vertex="1">
          <mxGeometry x="160" y="670" width="60" height="60" as="geometry" />
        </mxCell>
        <mxCell id="yQAFJQduz_WGNOiuuZG3-27" value="" style="endArrow=classic;html=1;" parent="1" source="yQAFJQduz_WGNOiuuZG3-29" target="yQAFJQduz_WGNOiuuZG3-26" edge="1">
          <mxGeometry width="50" height="50" relative="1" as="geometry">
            <mxPoint x="179" y="620" as="sourcePoint" />
            <mxPoint x="249" y="730" as="targetPoint" />
          </mxGeometry>
        </mxCell>
        <mxCell id="yQAFJQduz_WGNOiuuZG3-28" value="program.exe" style="shape=image;verticalLabelPosition=middle;labelBackgroundColor=#ffffff;verticalAlign=middle;aspect=fixed;imageAspect=0;image=data:image/svg+xml,PHN2ZyB4bWxucz0iaHR0cDovL3d3dy53My5vcmcvMjAwMC9zdmciIHZpZXdCb3g9IjAgMCAyNCAyNCI+PHBhdGggZD0iTTYgMkM0Ljg5IDIgNCAyLjkgNCA0VjIwQzQgMjEuMTEgNC44OSAyMiA2IDIySDEyVjIwSDZWNEgxM1Y5SDE4VjEySDIwVjhMMTQgMk0xOCAxNEMxNy44NyAxNCAxNy43NiAxNC4wOSAxNy43NCAxNC4yMUwxNy41NSAxNS41M0MxNy4yNSAxNS42NiAxNi45NiAxNS44MiAxNi43IDE2TDE1LjQ2IDE1LjVDMTUuMzUgMTUuNSAxNS4yMiAxNS41IDE1LjE1IDE1LjYzTDE0LjE1IDE3LjM2QzE0LjA5IDE3LjQ3IDE0LjExIDE3LjYgMTQuMjEgMTcuNjhMMTUuMjcgMTguNUMxNS4yNSAxOC42NyAxNS4yNCAxOC44MyAxNS4yNCAxOUMxNS4yNCAxOS4xNyAxNS4yNSAxOS4zMyAxNS4yNyAxOS41TDE0LjIxIDIwLjMyQzE0LjEyIDIwLjQgMTQuMDkgMjAuNTMgMTQuMTUgMjAuNjRMMTUuMTUgMjIuMzdDMTUuMjEgMjIuNSAxNS4zNCAyMi41IDE1LjQ2IDIyLjVMMTYuNyAyMkMxNi45NiAyMi4xOCAxNy4yNCAyMi4zNSAxNy41NSAyMi40N0wxNy43NCAyMy43OUMxNy43NiAyMy45MSAxNy44NiAyNCAxOCAyNEgyMEMyMC4xMSAyNCAyMC4yMiAyMy45MSAyMC4yNCAyMy43OUwyMC40MyAyMi40N0MyMC43MyAyMi4zNCAyMSAyMi4xOCAyMS4yNyAyMkwyMi41IDIyLjVDMjIuNjMgMjIuNSAyMi43NiAyMi41IDIyLjgzIDIyLjM3TDIzLjgzIDIwLjY0QzIzLjg5IDIwLjUzIDIzLjg2IDIwLjQgMjMuNzcgMjAuMzJMMjIuNyAxOS41QzIyLjcyIDE5LjMzIDIyLjc0IDE5LjE3IDIyLjc0IDE5QzIyLjc0IDE4LjgzIDIyLjczIDE4LjY3IDIyLjcgMTguNUwyMy43NiAxNy42OEMyMy44NSAxNy42IDIzLjg4IDE3LjQ3IDIzLjgyIDE3LjM2TDIyLjgyIDE1LjYzQzIyLjc2IDE1LjUgMjIuNjMgMTUuNSAyMi41IDE1LjVMMjEuMjcgMTZDMjEgMTUuODIgMjAuNzMgMTUuNjUgMjAuNDIgMTUuNTNMMjAuMjMgMTQuMjFDMjAuMjIgMTQuMDkgMjAuMTEgMTQgMjAgMTRNMTkgMTcuNUMxOS44MyAxNy41IDIwLjUgMTguMTcgMjAuNSAxOUMyMC41IDE5LjgzIDE5LjgzIDIwLjUgMTkgMjAuNUMxOC4xNiAyMC41IDE3LjUgMTkuODMgMTcuNSAxOUMxNy41IDE4LjE3IDE4LjE3IDE3LjUgMTkgMTcuNVoiLz48L3N2Zz4=;labelPosition=left;align=right;" parent="1" vertex="1">
          <mxGeometry x="260" y="790" width="60" height="60" as="geometry" />
        </mxCell>
        <mxCell id="yQAFJQduz_WGNOiuuZG3-29" value="main.cpp" style="shape=image;verticalLabelPosition=middle;labelBackgroundColor=#ffffff;verticalAlign=middle;aspect=fixed;imageAspect=0;image=data:image/svg+xml,PHN2ZyB4bWxucz0iaHR0cDovL3d3dy53My5vcmcvMjAwMC9zdmciIHZpZXdCb3g9IjAgMCAyNCAyNCI+PHBhdGggZD0iTTYsMkEyLDIgMCAwLDAgNCw0VjIwQTIsMiAwIDAsMCA2LDIySDE4QTIsMiAwIDAsMCAyMCwyMFY4TDE0LDJINk02LDRIMTNWOUgxOFYyMEg2VjRNOCwxMlYxNEgxNlYxMkg4TTgsMTZWMThIMTNWMTZIOFoiLz48L3N2Zz4=;labelPosition=left;align=right;" parent="1" vertex="1">
          <mxGeometry x="160" y="560" width="60" height="60" as="geometry" />
        </mxCell>
        <mxCell id="yQAFJQduz_WGNOiuuZG3-30" value="" style="endArrow=classic;html=1;exitX=0.5;exitY=1;exitDx=0;exitDy=0;entryX=0.25;entryY=0;entryDx=0;entryDy=0;" parent="1" source="yQAFJQduz_WGNOiuuZG3-26" target="yQAFJQduz_WGNOiuuZG3-28" edge="1">
          <mxGeometry width="50" height="50" relative="1" as="geometry">
            <mxPoint x="289" y="630" as="sourcePoint" />
            <mxPoint x="289" y="670" as="targetPoint" />
            <mxPoint as="offset" />
          </mxGeometry>
        </mxCell>
        <mxCell id="yQAFJQduz_WGNOiuuZG3-31" value="library.o" style="shape=image;verticalLabelPosition=middle;labelBackgroundColor=#ffffff;verticalAlign=middle;aspect=fixed;imageAspect=0;image=data:image/svg+xml,PHN2ZyB4bWxucz0iaHR0cDovL3d3dy53My5vcmcvMjAwMC9zdmciIHZpZXdCb3g9IjAgMCAyNCAyNCI+PHBhdGggZD0iTTYgMkM0Ljg5IDIgNCAyLjkgNCA0VjIwQzQgMjEuMTEgNC44OSAyMiA2IDIySDEyVjIwSDZWNEgxM1Y5SDE4VjEySDIwVjhMMTQgMk0xOCAxNEMxNy44NyAxNCAxNy43NiAxNC4wOSAxNy43NCAxNC4yMUwxNy41NSAxNS41M0MxNy4yNSAxNS42NiAxNi45NiAxNS44MiAxNi43IDE2TDE1LjQ2IDE1LjVDMTUuMzUgMTUuNSAxNS4yMiAxNS41IDE1LjE1IDE1LjYzTDE0LjE1IDE3LjM2QzE0LjA5IDE3LjQ3IDE0LjExIDE3LjYgMTQuMjEgMTcuNjhMMTUuMjcgMTguNUMxNS4yNSAxOC42NyAxNS4yNCAxOC44MyAxNS4yNCAxOUMxNS4yNCAxOS4xNyAxNS4yNSAxOS4zMyAxNS4yNyAxOS41TDE0LjIxIDIwLjMyQzE0LjEyIDIwLjQgMTQuMDkgMjAuNTMgMTQuMTUgMjAuNjRMMTUuMTUgMjIuMzdDMTUuMjEgMjIuNSAxNS4zNCAyMi41IDE1LjQ2IDIyLjVMMTYuNyAyMkMxNi45NiAyMi4xOCAxNy4yNCAyMi4zNSAxNy41NSAyMi40N0wxNy43NCAyMy43OUMxNy43NiAyMy45MSAxNy44NiAyNCAxOCAyNEgyMEMyMC4xMSAyNCAyMC4yMiAyMy45MSAyMC4yNCAyMy43OUwyMC40MyAyMi40N0MyMC43MyAyMi4zNCAyMSAyMi4xOCAyMS4yNyAyMkwyMi41IDIyLjVDMjIuNjMgMjIuNSAyMi43NiAyMi41IDIyLjgzIDIyLjM3TDIzLjgzIDIwLjY0QzIzLjg5IDIwLjUzIDIzLjg2IDIwLjQgMjMuNzcgMjAuMzJMMjIuNyAxOS41QzIyLjcyIDE5LjMzIDIyLjc0IDE5LjE3IDIyLjc0IDE5QzIyLjc0IDE4LjgzIDIyLjczIDE4LjY3IDIyLjcgMTguNUwyMy43NiAxNy42OEMyMy44NSAxNy42IDIzLjg4IDE3LjQ3IDIzLjgyIDE3LjM2TDIyLjgyIDE1LjYzQzIyLjc2IDE1LjUgMjIuNjMgMTUuNSAyMi41IDE1LjVMMjEuMjcgMTZDMjEgMTUuODIgMjAuNzMgMTUuNjUgMjAuNDIgMTUuNTNMMjAuMjMgMTQuMjFDMjAuMjIgMTQuMDkgMjAuMTEgMTQgMjAgMTRNMTkgMTcuNUMxOS44MyAxNy41IDIwLjUgMTguMTcgMjAuNSAxOUMyMC41IDE5LjgzIDE5LjgzIDIwLjUgMTkgMjAuNUMxOC4xNiAyMC41IDE3LjUgMTkuODMgMTcuNSAxOUMxNy41IDE4LjE3IDE4LjE3IDE3LjUgMTkgMTcuNVoiLz48L3N2Zz4=;labelPosition=right;align=left;" parent="1" vertex="1">
          <mxGeometry x="365" y="670" width="60" height="60" as="geometry" />
        </mxCell>
        <mxCell id="yQAFJQduz_WGNOiuuZG3-32" value="" style="endArrow=classic;html=1;labelPosition=center;verticalLabelPosition=middle;align=center;verticalAlign=middle;" parent="1" source="yQAFJQduz_WGNOiuuZG3-33" target="yQAFJQduz_WGNOiuuZG3-31" edge="1">
          <mxGeometry width="50" height="50" relative="1" as="geometry">
            <mxPoint x="395" y="620" as="sourcePoint" />
            <mxPoint x="465" y="730" as="targetPoint" />
            <mxPoint as="offset" />
          </mxGeometry>
        </mxCell>
        <mxCell id="yQAFJQduz_WGNOiuuZG3-33" value="library.cpp" style="shape=image;verticalLabelPosition=middle;labelBackgroundColor=#ffffff;verticalAlign=middle;aspect=fixed;imageAspect=0;image=data:image/svg+xml,PHN2ZyB4bWxucz0iaHR0cDovL3d3dy53My5vcmcvMjAwMC9zdmciIHZpZXdCb3g9IjAgMCAyNCAyNCI+PHBhdGggZD0iTTYsMkEyLDIgMCAwLDAgNCw0VjIwQTIsMiAwIDAsMCA2LDIySDE4QTIsMiAwIDAsMCAyMCwyMFY4TDE0LDJINk02LDRIMTNWOUgxOFYyMEg2VjRNOCwxMlYxNEgxNlYxMkg4TTgsMTZWMThIMTNWMTZIOFoiLz48L3N2Zz4=;labelPosition=right;align=left;" parent="1" vertex="1">
          <mxGeometry x="365" y="560" width="60" height="60" as="geometry" />
        </mxCell>
        <mxCell id="yQAFJQduz_WGNOiuuZG3-34" value="" style="endArrow=classic;html=1;exitX=0.5;exitY=1;exitDx=0;exitDy=0;labelPosition=center;verticalLabelPosition=middle;align=center;verticalAlign=middle;entryX=0.75;entryY=0;entryDx=0;entryDy=0;" parent="1" source="yQAFJQduz_WGNOiuuZG3-31" target="yQAFJQduz_WGNOiuuZG3-28" edge="1">
          <mxGeometry x="0.0331" width="50" height="50" relative="1" as="geometry">
            <mxPoint x="445" y="630" as="sourcePoint" />
            <mxPoint x="364" y="790" as="targetPoint" />
            <mxPoint as="offset" />
          </mxGeometry>
        </mxCell>
        <mxCell id="yQAFJQduz_WGNOiuuZG3-35" value="" style="endArrow=none;dashed=1;html=1;align=center;exitX=0.5;exitY=0;exitDx=0;exitDy=0;" parent="1" source="yQAFJQduz_WGNOiuuZG3-29" target="yQAFJQduz_WGNOiuuZG3-4" edge="1">
          <mxGeometry width="50" height="50" relative="1" as="geometry">
            <mxPoint x="220" y="640" as="sourcePoint" />
            <mxPoint x="270" y="590" as="targetPoint" />
          </mxGeometry>
        </mxCell>
        <mxCell id="yQAFJQduz_WGNOiuuZG3-36" value="" style="endArrow=none;dashed=1;html=1;align=center;exitX=0.5;exitY=0;exitDx=0;exitDy=0;entryX=0.979;entryY=0.819;entryDx=0;entryDy=0;entryPerimeter=0;" parent="1" source="yQAFJQduz_WGNOiuuZG3-33" target="yQAFJQduz_WGNOiuuZG3-4" edge="1">
          <mxGeometry width="50" height="50" relative="1" as="geometry">
            <mxPoint x="230" y="600" as="sourcePoint" />
            <mxPoint x="270" y="550" as="targetPoint" />
          </mxGeometry>
        </mxCell>
        <mxCell id="yQAFJQduz_WGNOiuuZG3-37" value="Compile" style="rounded=0;whiteSpace=wrap;html=1;labelBackgroundColor=none;fillColor=#f5f5f5;strokeColor=#666666;fontColor=#333333;" parent="1" vertex="1">
          <mxGeometry x="120" y="200" width="60" height="20" as="geometry" />
        </mxCell>
        <mxCell id="yQAFJQduz_WGNOiuuZG3-38" value="Compile" style="rounded=0;whiteSpace=wrap;html=1;labelBackgroundColor=none;fillColor=#f5f5f5;strokeColor=#666666;fontColor=#333333;" parent="1" vertex="1">
          <mxGeometry x="365" y="190" width="60" height="20" as="geometry" />
        </mxCell>
        <mxCell id="yQAFJQduz_WGNOiuuZG3-39" value="Compile" style="rounded=0;whiteSpace=wrap;html=1;labelBackgroundColor=none;fillColor=#f5f5f5;strokeColor=#666666;fontColor=#333333;" parent="1" vertex="1">
          <mxGeometry x="460" y="190" width="60" height="20" as="geometry" />
        </mxCell>
        <mxCell id="yQAFJQduz_WGNOiuuZG3-40" value="Link" style="rounded=0;whiteSpace=wrap;html=1;labelBackgroundColor=none;fillColor=#f5f5f5;strokeColor=#666666;fontColor=#333333;" parent="1" vertex="1">
          <mxGeometry x="120" y="313" width="60" height="20" as="geometry" />
        </mxCell>
        <mxCell id="yQAFJQduz_WGNOiuuZG3-41" value="Link" style="rounded=0;whiteSpace=wrap;html=1;labelBackgroundColor=none;fillColor=#f5f5f5;strokeColor=#666666;fontColor=#333333;" parent="1" vertex="1">
          <mxGeometry x="376" y="313" width="140" height="20" as="geometry" />
        </mxCell>
        <mxCell id="yQAFJQduz_WGNOiuuZG3-42" value="Link" style="rounded=0;whiteSpace=wrap;html=1;labelBackgroundColor=none;fillColor=#f5f5f5;strokeColor=#666666;fontColor=#333333;" parent="1" vertex="1">
          <mxGeometry x="170" y="750" width="240" height="20" as="geometry" />
        </mxCell>
        <mxCell id="yQAFJQduz_WGNOiuuZG3-43" value="Compile" style="rounded=0;whiteSpace=wrap;html=1;labelBackgroundColor=none;fillColor=#f5f5f5;strokeColor=#666666;fontColor=#333333;" parent="1" vertex="1">
          <mxGeometry x="160" y="630" width="60" height="20" as="geometry" />
        </mxCell>
        <mxCell id="yQAFJQduz_WGNOiuuZG3-44" value="Compile" style="rounded=0;whiteSpace=wrap;html=1;labelBackgroundColor=none;fillColor=#f5f5f5;strokeColor=#666666;fontColor=#333333;" parent="1" vertex="1">
          <mxGeometry x="365" y="630" width="60" height="20" as="geometry" />
        </mxCell>
        <mxCell id="yQAFJQduz_WGNOiuuZG3-46" value="Include" style="rounded=0;whiteSpace=wrap;html=1;labelBackgroundColor=none;fillColor=#f5f5f5;strokeColor=#666666;fontColor=#333333;" parent="1" vertex="1">
          <mxGeometry x="320" y="535" width="60" height="20" as="geometry" />
        </mxCell>
        <mxCell id="yQAFJQduz_WGNOiuuZG3-49" value="Include" style="rounded=0;whiteSpace=wrap;html=1;labelBackgroundColor=none;fillColor=#f5f5f5;strokeColor=#666666;fontColor=#333333;" parent="1" vertex="1">
          <mxGeometry x="191" y="535" width="60" height="20" as="geometry" />
        </mxCell>
        <mxCell id="UrNAwTuo9XHeN6puUlUN-1" value="main.o" style="shape=image;verticalLabelPosition=middle;labelBackgroundColor=#ffffff;verticalAlign=middle;aspect=fixed;imageAspect=0;image=data:image/svg+xml,PHN2ZyB4bWxucz0iaHR0cDovL3d3dy53My5vcmcvMjAwMC9zdmciIHZpZXdCb3g9IjAgMCAyNCAyNCI+PHBhdGggZD0iTTYgMkM0Ljg5IDIgNCAyLjkgNCA0VjIwQzQgMjEuMTEgNC44OSAyMiA2IDIySDEyVjIwSDZWNEgxM1Y5SDE4VjEySDIwVjhMMTQgMk0xOCAxNEMxNy44NyAxNCAxNy43NiAxNC4wOSAxNy43NCAxNC4yMUwxNy41NSAxNS41M0MxNy4yNSAxNS42NiAxNi45NiAxNS44MiAxNi43IDE2TDE1LjQ2IDE1LjVDMTUuMzUgMTUuNSAxNS4yMiAxNS41IDE1LjE1IDE1LjYzTDE0LjE1IDE3LjM2QzE0LjA5IDE3LjQ3IDE0LjExIDE3LjYgMTQuMjEgMTcuNjhMMTUuMjcgMTguNUMxNS4yNSAxOC42NyAxNS4yNCAxOC44MyAxNS4yNCAxOUMxNS4yNCAxOS4xNyAxNS4yNSAxOS4zMyAxNS4yNyAxOS41TDE0LjIxIDIwLjMyQzE0LjEyIDIwLjQgMTQuMDkgMjAuNTMgMTQuMTUgMjAuNjRMMTUuMTUgMjIuMzdDMTUuMjEgMjIuNSAxNS4zNCAyMi41IDE1LjQ2IDIyLjVMMTYuNyAyMkMxNi45NiAyMi4xOCAxNy4yNCAyMi4zNSAxNy41NSAyMi40N0wxNy43NCAyMy43OUMxNy43NiAyMy45MSAxNy44NiAyNCAxOCAyNEgyMEMyMC4xMSAyNCAyMC4yMiAyMy45MSAyMC4yNCAyMy43OUwyMC40MyAyMi40N0MyMC43MyAyMi4zNCAyMSAyMi4xOCAyMS4yNyAyMkwyMi41IDIyLjVDMjIuNjMgMjIuNSAyMi43NiAyMi41IDIyLjgzIDIyLjM3TDIzLjgzIDIwLjY0QzIzLjg5IDIwLjUzIDIzLjg2IDIwLjQgMjMuNzcgMjAuMzJMMjIuNyAxOS41QzIyLjcyIDE5LjMzIDIyLjc0IDE5LjE3IDIyLjc0IDE5QzIyLjc0IDE4LjgzIDIyLjczIDE4LjY3IDIyLjcgMTguNUwyMy43NiAxNy42OEMyMy44NSAxNy42IDIzLjg4IDE3LjQ3IDIzLjgyIDE3LjM2TDIyLjgyIDE1LjYzQzIyLjc2IDE1LjUgMjIuNjMgMTUuNSAyMi41IDE1LjVMMjEuMjcgMTZDMjEgMTUuODIgMjAuNzMgMTUuNjUgMjAuNDIgMTUuNTNMMjAuMjMgMTQuMjFDMjAuMjIgMTQuMDkgMjAuMTEgMTQgMjAgMTRNMTkgMTcuNUMxOS44MyAxNy41IDIwLjUgMTguMTcgMjAuNSAxOUMyMC41IDE5LjgzIDE5LjgzIDIwLjUgMTkgMjAuNUMxOC4xNiAyMC41IDE3LjUgMTkuODMgMTcuNSAxOUMxNy41IDE4LjE3IDE4LjE3IDE3LjUgMTkgMTcuNVoiLz48L3N2Zz4=;labelPosition=left;align=right;" vertex="1" parent="1">
          <mxGeometry x="365" y="-170" width="60" height="60" as="geometry" />
        </mxCell>
        <mxCell id="UrNAwTuo9XHeN6puUlUN-2" value="" style="endArrow=classic;html=1;" edge="1" parent="1" source="UrNAwTuo9XHeN6puUlUN-4" target="UrNAwTuo9XHeN6puUlUN-1">
          <mxGeometry width="50" height="50" relative="1" as="geometry">
            <mxPoint x="384" y="-220" as="sourcePoint" />
            <mxPoint x="454" y="-110" as="targetPoint" />
          </mxGeometry>
        </mxCell>
        <mxCell id="UrNAwTuo9XHeN6puUlUN-3" value="program.exe" style="shape=image;verticalLabelPosition=middle;labelBackgroundColor=#ffffff;verticalAlign=middle;aspect=fixed;imageAspect=0;image=data:image/svg+xml,PHN2ZyB4bWxucz0iaHR0cDovL3d3dy53My5vcmcvMjAwMC9zdmciIHZpZXdCb3g9IjAgMCAyNCAyNCI+PHBhdGggZD0iTTYgMkM0Ljg5IDIgNCAyLjkgNCA0VjIwQzQgMjEuMTEgNC44OSAyMiA2IDIySDEyVjIwSDZWNEgxM1Y5SDE4VjEySDIwVjhMMTQgMk0xOCAxNEMxNy44NyAxNCAxNy43NiAxNC4wOSAxNy43NCAxNC4yMUwxNy41NSAxNS41M0MxNy4yNSAxNS42NiAxNi45NiAxNS44MiAxNi43IDE2TDE1LjQ2IDE1LjVDMTUuMzUgMTUuNSAxNS4yMiAxNS41IDE1LjE1IDE1LjYzTDE0LjE1IDE3LjM2QzE0LjA5IDE3LjQ3IDE0LjExIDE3LjYgMTQuMjEgMTcuNjhMMTUuMjcgMTguNUMxNS4yNSAxOC42NyAxNS4yNCAxOC44MyAxNS4yNCAxOUMxNS4yNCAxOS4xNyAxNS4yNSAxOS4zMyAxNS4yNyAxOS41TDE0LjIxIDIwLjMyQzE0LjEyIDIwLjQgMTQuMDkgMjAuNTMgMTQuMTUgMjAuNjRMMTUuMTUgMjIuMzdDMTUuMjEgMjIuNSAxNS4zNCAyMi41IDE1LjQ2IDIyLjVMMTYuNyAyMkMxNi45NiAyMi4xOCAxNy4yNCAyMi4zNSAxNy41NSAyMi40N0wxNy43NCAyMy43OUMxNy43NiAyMy45MSAxNy44NiAyNCAxOCAyNEgyMEMyMC4xMSAyNCAyMC4yMiAyMy45MSAyMC4yNCAyMy43OUwyMC40MyAyMi40N0MyMC43MyAyMi4zNCAyMSAyMi4xOCAyMS4yNyAyMkwyMi41IDIyLjVDMjIuNjMgMjIuNSAyMi43NiAyMi41IDIyLjgzIDIyLjM3TDIzLjgzIDIwLjY0QzIzLjg5IDIwLjUzIDIzLjg2IDIwLjQgMjMuNzcgMjAuMzJMMjIuNyAxOS41QzIyLjcyIDE5LjMzIDIyLjc0IDE5LjE3IDIyLjc0IDE5QzIyLjc0IDE4LjgzIDIyLjczIDE4LjY3IDIyLjcgMTguNUwyMy43NiAxNy42OEMyMy44NSAxNy42IDIzLjg4IDE3LjQ3IDIzLjgyIDE3LjM2TDIyLjgyIDE1LjYzQzIyLjc2IDE1LjUgMjIuNjMgMTUuNSAyMi41IDE1LjVMMjEuMjcgMTZDMjEgMTUuODIgMjAuNzMgMTUuNjUgMjAuNDIgMTUuNTNMMjAuMjMgMTQuMjFDMjAuMjIgMTQuMDkgMjAuMTEgMTQgMjAgMTRNMTkgMTcuNUMxOS44MyAxNy41IDIwLjUgMTguMTcgMjAuNSAxOUMyMC41IDE5LjgzIDE5LjgzIDIwLjUgMTkgMjAuNUMxOC4xNiAyMC41IDE3LjUgMTkuODMgMTcuNSAxOUMxNy41IDE4LjE3IDE4LjE3IDE3LjUgMTkgMTcuNVoiLz48L3N2Zz4=;labelPosition=left;align=right;" vertex="1" parent="1">
          <mxGeometry x="414" y="-50" width="60" height="60" as="geometry" />
        </mxCell>
        <mxCell id="UrNAwTuo9XHeN6puUlUN-4" value="main.cpp" style="shape=image;verticalLabelPosition=middle;labelBackgroundColor=#ffffff;verticalAlign=middle;aspect=fixed;imageAspect=0;image=data:image/svg+xml,PHN2ZyB4bWxucz0iaHR0cDovL3d3dy53My5vcmcvMjAwMC9zdmciIHZpZXdCb3g9IjAgMCAyNCAyNCI+PHBhdGggZD0iTTYsMkEyLDIgMCAwLDAgNCw0VjIwQTIsMiAwIDAsMCA2LDIySDE4QTIsMiAwIDAsMCAyMCwyMFY4TDE0LDJINk02LDRIMTNWOUgxOFYyMEg2VjRNOCwxMlYxNEgxNlYxMkg4TTgsMTZWMThIMTNWMTZIOFoiLz48L3N2Zz4=;labelPosition=left;align=right;" vertex="1" parent="1">
          <mxGeometry x="365" y="-280" width="60" height="60" as="geometry" />
        </mxCell>
        <mxCell id="UrNAwTuo9XHeN6puUlUN-5" value="" style="endArrow=classic;html=1;exitX=0.5;exitY=1;exitDx=0;exitDy=0;entryX=0.25;entryY=0;entryDx=0;entryDy=0;" edge="1" parent="1" source="UrNAwTuo9XHeN6puUlUN-1" target="UrNAwTuo9XHeN6puUlUN-3">
          <mxGeometry width="50" height="50" relative="1" as="geometry">
            <mxPoint x="454" y="-210" as="sourcePoint" />
            <mxPoint x="454" y="-170" as="targetPoint" />
            <mxPoint as="offset" />
          </mxGeometry>
        </mxCell>
        <mxCell id="UrNAwTuo9XHeN6puUlUN-9" value="" style="endArrow=classic;html=1;exitX=0.5;exitY=1;exitDx=0;exitDy=0;labelPosition=center;verticalLabelPosition=middle;align=center;verticalAlign=middle;entryX=0.75;entryY=0;entryDx=0;entryDy=0;" edge="1" parent="1" target="UrNAwTuo9XHeN6puUlUN-3">
          <mxGeometry x="0.0331" width="50" height="50" relative="1" as="geometry">
            <mxPoint x="490" y="-110" as="sourcePoint" />
            <mxPoint x="530" y="-50" as="targetPoint" />
            <mxPoint as="offset" />
          </mxGeometry>
        </mxCell>
        <mxCell id="UrNAwTuo9XHeN6puUlUN-10" value="Compile" style="rounded=0;whiteSpace=wrap;html=1;labelBackgroundColor=none;fillColor=#f5f5f5;strokeColor=#666666;fontColor=#333333;" vertex="1" parent="1">
          <mxGeometry x="365" y="-210" width="60" height="20" as="geometry" />
        </mxCell>
        <mxCell id="UrNAwTuo9XHeN6puUlUN-12" value="Link" style="rounded=0;whiteSpace=wrap;html=1;labelBackgroundColor=none;fillColor=#f5f5f5;strokeColor=#666666;fontColor=#333333;" vertex="1" parent="1">
          <mxGeometry x="376" y="-87" width="140" height="20" as="geometry" />
        </mxCell>
        <mxCell id="UrNAwTuo9XHeN6puUlUN-13" value="&lt;font style=&quot;color: rgb(212, 59, 59); font-size: 24px;&quot;&gt;????&lt;/font&gt;" style="text;html=1;align=center;verticalAlign=middle;whiteSpace=wrap;rounded=0;" vertex="1" parent="1">
          <mxGeometry x="470" y="-155" width="60" height="30" as="geometry" />
        </mxCell>
        <mxCell id="UrNAwTuo9XHeN6puUlUN-14" value="main.o" style="shape=image;verticalLabelPosition=middle;labelBackgroundColor=#ffffff;verticalAlign=middle;aspect=fixed;imageAspect=0;image=data:image/svg+xml,PHN2ZyB4bWxucz0iaHR0cDovL3d3dy53My5vcmcvMjAwMC9zdmciIHZpZXdCb3g9IjAgMCAyNCAyNCI+PHBhdGggZD0iTTYgMkM0Ljg5IDIgNCAyLjkgNCA0VjIwQzQgMjEuMTEgNC44OSAyMiA2IDIySDEyVjIwSDZWNEgxM1Y5SDE4VjEySDIwVjhMMTQgMk0xOCAxNEMxNy44NyAxNCAxNy43NiAxNC4wOSAxNy43NCAxNC4yMUwxNy41NSAxNS41M0MxNy4yNSAxNS42NiAxNi45NiAxNS44MiAxNi43IDE2TDE1LjQ2IDE1LjVDMTUuMzUgMTUuNSAxNS4yMiAxNS41IDE1LjE1IDE1LjYzTDE0LjE1IDE3LjM2QzE0LjA5IDE3LjQ3IDE0LjExIDE3LjYgMTQuMjEgMTcuNjhMMTUuMjcgMTguNUMxNS4yNSAxOC42NyAxNS4yNCAxOC44MyAxNS4yNCAxOUMxNS4yNCAxOS4xNyAxNS4yNSAxOS4zMyAxNS4yNyAxOS41TDE0LjIxIDIwLjMyQzE0LjEyIDIwLjQgMTQuMDkgMjAuNTMgMTQuMTUgMjAuNjRMMTUuMTUgMjIuMzdDMTUuMjEgMjIuNSAxNS4zNCAyMi41IDE1LjQ2IDIyLjVMMTYuNyAyMkMxNi45NiAyMi4xOCAxNy4yNCAyMi4zNSAxNy41NSAyMi40N0wxNy43NCAyMy43OUMxNy43NiAyMy45MSAxNy44NiAyNCAxOCAyNEgyMEMyMC4xMSAyNCAyMC4yMiAyMy45MSAyMC4yNCAyMy43OUwyMC40MyAyMi40N0MyMC43MyAyMi4zNCAyMSAyMi4xOCAyMS4yNyAyMkwyMi41IDIyLjVDMjIuNjMgMjIuNSAyMi43NiAyMi41IDIyLjgzIDIyLjM3TDIzLjgzIDIwLjY0QzIzLjg5IDIwLjUzIDIzLjg2IDIwLjQgMjMuNzcgMjAuMzJMMjIuNyAxOS41QzIyLjcyIDE5LjMzIDIyLjc0IDE5LjE3IDIyLjc0IDE5QzIyLjc0IDE4LjgzIDIyLjczIDE4LjY3IDIyLjcgMTguNUwyMy43NiAxNy42OEMyMy44NSAxNy42IDIzLjg4IDE3LjQ3IDIzLjgyIDE3LjM2TDIyLjgyIDE1LjYzQzIyLjc2IDE1LjUgMjIuNjMgMTUuNSAyMi41IDE1LjVMMjEuMjcgMTZDMjEgMTUuODIgMjAuNzMgMTUuNjUgMjAuNDIgMTUuNTNMMjAuMjMgMTQuMjFDMjAuMjIgMTQuMDkgMjAuMTEgMTQgMjAgMTRNMTkgMTcuNUMxOS44MyAxNy41IDIwLjUgMTguMTcgMjAuNSAxOUMyMC41IDE5LjgzIDE5LjgzIDIwLjUgMTkgMjAuNUMxOC4xNiAyMC41IDE3LjUgMTkuODMgMTcuNSAxOUMxNy41IDE4LjE3IDE4LjE3IDE3LjUgMTkgMTcuNVoiLz48L3N2Zz4=;labelPosition=left;align=right;" vertex="1" parent="1">
          <mxGeometry x="260" y="1130" width="60" height="60" as="geometry" />
        </mxCell>
        <mxCell id="UrNAwTuo9XHeN6puUlUN-15" value="" style="endArrow=classic;html=1;" edge="1" parent="1" source="UrNAwTuo9XHeN6puUlUN-17" target="UrNAwTuo9XHeN6puUlUN-14">
          <mxGeometry width="50" height="50" relative="1" as="geometry">
            <mxPoint x="290" y="1080" as="sourcePoint" />
            <mxPoint x="360" y="1190" as="targetPoint" />
          </mxGeometry>
        </mxCell>
        <mxCell id="UrNAwTuo9XHeN6puUlUN-16" value="program.exe" style="shape=image;verticalLabelPosition=middle;labelBackgroundColor=#ffffff;verticalAlign=middle;aspect=fixed;imageAspect=0;image=data:image/svg+xml,PHN2ZyB4bWxucz0iaHR0cDovL3d3dy53My5vcmcvMjAwMC9zdmciIHZpZXdCb3g9IjAgMCAyNCAyNCI+PHBhdGggZD0iTTYgMkM0Ljg5IDIgNCAyLjkgNCA0VjIwQzQgMjEuMTEgNC44OSAyMiA2IDIySDEyVjIwSDZWNEgxM1Y5SDE4VjEySDIwVjhMMTQgMk0xOCAxNEMxNy44NyAxNCAxNy43NiAxNC4wOSAxNy43NCAxNC4yMUwxNy41NSAxNS41M0MxNy4yNSAxNS42NiAxNi45NiAxNS44MiAxNi43IDE2TDE1LjQ2IDE1LjVDMTUuMzUgMTUuNSAxNS4yMiAxNS41IDE1LjE1IDE1LjYzTDE0LjE1IDE3LjM2QzE0LjA5IDE3LjQ3IDE0LjExIDE3LjYgMTQuMjEgMTcuNjhMMTUuMjcgMTguNUMxNS4yNSAxOC42NyAxNS4yNCAxOC44MyAxNS4yNCAxOUMxNS4yNCAxOS4xNyAxNS4yNSAxOS4zMyAxNS4yNyAxOS41TDE0LjIxIDIwLjMyQzE0LjEyIDIwLjQgMTQuMDkgMjAuNTMgMTQuMTUgMjAuNjRMMTUuMTUgMjIuMzdDMTUuMjEgMjIuNSAxNS4zNCAyMi41IDE1LjQ2IDIyLjVMMTYuNyAyMkMxNi45NiAyMi4xOCAxNy4yNCAyMi4zNSAxNy41NSAyMi40N0wxNy43NCAyMy43OUMxNy43NiAyMy45MSAxNy44NiAyNCAxOCAyNEgyMEMyMC4xMSAyNCAyMC4yMiAyMy45MSAyMC4yNCAyMy43OUwyMC40MyAyMi40N0MyMC43MyAyMi4zNCAyMSAyMi4xOCAyMS4yNyAyMkwyMi41IDIyLjVDMjIuNjMgMjIuNSAyMi43NiAyMi41IDIyLjgzIDIyLjM3TDIzLjgzIDIwLjY0QzIzLjg5IDIwLjUzIDIzLjg2IDIwLjQgMjMuNzcgMjAuMzJMMjIuNyAxOS41QzIyLjcyIDE5LjMzIDIyLjc0IDE5LjE3IDIyLjc0IDE5QzIyLjc0IDE4LjgzIDIyLjczIDE4LjY3IDIyLjcgMTguNUwyMy43NiAxNy42OEMyMy44NSAxNy42IDIzLjg4IDE3LjQ3IDIzLjgyIDE3LjM2TDIyLjgyIDE1LjYzQzIyLjc2IDE1LjUgMjIuNjMgMTUuNSAyMi41IDE1LjVMMjEuMjcgMTZDMjEgMTUuODIgMjAuNzMgMTUuNjUgMjAuNDIgMTUuNTNMMjAuMjMgMTQuMjFDMjAuMjIgMTQuMDkgMjAuMTEgMTQgMjAgMTRNMTkgMTcuNUMxOS44MyAxNy41IDIwLjUgMTguMTcgMjAuNSAxOUMyMC41IDE5LjgzIDE5LjgzIDIwLjUgMTkgMjAuNUMxOC4xNiAyMC41IDE3LjUgMTkuODMgMTcuNSAxOUMxNy41IDE4LjE3IDE4LjE3IDE3LjUgMTkgMTcuNVoiLz48L3N2Zz4=;labelPosition=left;align=right;" vertex="1" parent="1">
          <mxGeometry x="260" y="1240" width="60" height="60" as="geometry" />
        </mxCell>
        <mxCell id="UrNAwTuo9XHeN6puUlUN-17" value="main.cpp" style="shape=image;verticalLabelPosition=middle;labelBackgroundColor=#ffffff;verticalAlign=middle;aspect=fixed;imageAspect=0;image=data:image/svg+xml,PHN2ZyB4bWxucz0iaHR0cDovL3d3dy53My5vcmcvMjAwMC9zdmciIHZpZXdCb3g9IjAgMCAyNCAyNCI+PHBhdGggZD0iTTYsMkEyLDIgMCAwLDAgNCw0VjIwQTIsMiAwIDAsMCA2LDIySDE4QTIsMiAwIDAsMCAyMCwyMFY4TDE0LDJINk02LDRIMTNWOUgxOFYyMEg2VjRNOCwxMlYxNEgxNlYxMkg4TTgsMTZWMThIMTNWMTZIOFoiLz48L3N2Zz4=;labelPosition=left;align=right;" vertex="1" parent="1">
          <mxGeometry x="260" y="1010" width="60" height="60" as="geometry" />
        </mxCell>
        <mxCell id="UrNAwTuo9XHeN6puUlUN-18" value="" style="endArrow=classic;html=1;exitX=0.5;exitY=1;exitDx=0;exitDy=0;" edge="1" parent="1" source="UrNAwTuo9XHeN6puUlUN-14" target="UrNAwTuo9XHeN6puUlUN-16">
          <mxGeometry width="50" height="50" relative="1" as="geometry">
            <mxPoint x="300" y="1090" as="sourcePoint" />
            <mxPoint x="300" y="1130" as="targetPoint" />
            <mxPoint as="offset" />
          </mxGeometry>
        </mxCell>
        <mxCell id="UrNAwTuo9XHeN6puUlUN-19" value="Compile" style="rounded=0;whiteSpace=wrap;html=1;labelBackgroundColor=none;fillColor=#f5f5f5;strokeColor=#666666;fontColor=#333333;" vertex="1" parent="1">
          <mxGeometry x="260" y="1090" width="60" height="20" as="geometry" />
        </mxCell>
        <mxCell id="UrNAwTuo9XHeN6puUlUN-20" value="Link" style="rounded=0;whiteSpace=wrap;html=1;labelBackgroundColor=none;fillColor=#f5f5f5;strokeColor=#666666;fontColor=#333333;" vertex="1" parent="1">
          <mxGeometry x="260" y="1203" width="60" height="20" as="geometry" />
        </mxCell>
        <mxCell id="UrNAwTuo9XHeN6puUlUN-21" value="" style="endArrow=classic;html=1;entryX=1;entryY=0.5;entryDx=0;entryDy=0;" edge="1" parent="1" target="UrNAwTuo9XHeN6puUlUN-20">
          <mxGeometry width="50" height="50" relative="1" as="geometry">
            <mxPoint x="360" y="1213" as="sourcePoint" />
            <mxPoint x="300" y="1250" as="targetPoint" />
            <mxPoint as="offset" />
          </mxGeometry>
        </mxCell>
        <mxCell id="UrNAwTuo9XHeN6puUlUN-23" value="library code" style="shape=image;verticalLabelPosition=top;labelBackgroundColor=#ffffff;verticalAlign=bottom;aspect=fixed;imageAspect=0;image=data:image/svg+xml,PHN2ZyB4bWxucz0iaHR0cDovL3d3dy53My5vcmcvMjAwMC9zdmciIHZpZXdCb3g9IjAgMCAyNCAyNCI+PHBhdGggZD0iTTYgMkM0Ljg5IDIgNCAyLjkgNCA0VjIwQzQgMjEuMTEgNC44OSAyMiA2IDIySDEyVjIwSDZWNEgxM1Y5SDE4VjEySDIwVjhMMTQgMk0xOCAxNEMxNy44NyAxNCAxNy43NiAxNC4wOSAxNy43NCAxNC4yMUwxNy41NSAxNS41M0MxNy4yNSAxNS42NiAxNi45NiAxNS44MiAxNi43IDE2TDE1LjQ2IDE1LjVDMTUuMzUgMTUuNSAxNS4yMiAxNS41IDE1LjE1IDE1LjYzTDE0LjE1IDE3LjM2QzE0LjA5IDE3LjQ3IDE0LjExIDE3LjYgMTQuMjEgMTcuNjhMMTUuMjcgMTguNUMxNS4yNSAxOC42NyAxNS4yNCAxOC44MyAxNS4yNCAxOUMxNS4yNCAxOS4xNyAxNS4yNSAxOS4zMyAxNS4yNyAxOS41TDE0LjIxIDIwLjMyQzE0LjEyIDIwLjQgMTQuMDkgMjAuNTMgMTQuMTUgMjAuNjRMMTUuMTUgMjIuMzdDMTUuMjEgMjIuNSAxNS4zNCAyMi41IDE1LjQ2IDIyLjVMMTYuNyAyMkMxNi45NiAyMi4xOCAxNy4yNCAyMi4zNSAxNy41NSAyMi40N0wxNy43NCAyMy43OUMxNy43NiAyMy45MSAxNy44NiAyNCAxOCAyNEgyMEMyMC4xMSAyNCAyMC4yMiAyMy45MSAyMC4yNCAyMy43OUwyMC40MyAyMi40N0MyMC43MyAyMi4zNCAyMSAyMi4xOCAyMS4yNyAyMkwyMi41IDIyLjVDMjIuNjMgMjIuNSAyMi43NiAyMi41IDIyLjgzIDIyLjM3TDIzLjgzIDIwLjY0QzIzLjg5IDIwLjUzIDIzLjg2IDIwLjQgMjMuNzcgMjAuMzJMMjIuNyAxOS41QzIyLjcyIDE5LjMzIDIyLjc0IDE5LjE3IDIyLjc0IDE5QzIyLjc0IDE4LjgzIDIyLjczIDE4LjY3IDIyLjcgMTguNUwyMy43NiAxNy42OEMyMy44NSAxNy42IDIzLjg4IDE3LjQ3IDIzLjgyIDE3LjM2TDIyLjgyIDE1LjYzQzIyLjc2IDE1LjUgMjIuNjMgMTUuNSAyMi41IDE1LjVMMjEuMjcgMTZDMjEgMTUuODIgMjAuNzMgMTUuNjUgMjAuNDIgMTUuNTNMMjAuMjMgMTQuMjFDMjAuMjIgMTQuMDkgMjAuMTEgMTQgMjAgMTRNMTkgMTcuNUMxOS44MyAxNy41IDIwLjUgMTguMTcgMjAuNSAxOUMyMC41IDE5LjgzIDE5LjgzIDIwLjUgMTkgMjAuNUMxOC4xNiAyMC41IDE3LjUgMTkuODMgMTcuNSAxOUMxNy41IDE4LjE3IDE4LjE3IDE3LjUgMTkgMTcuNVoiLz48L3N2Zz4=;labelPosition=center;align=center;" vertex="1" parent="1">
          <mxGeometry x="365" y="1180" width="60" height="60" as="geometry" />
        </mxCell>
        <mxCell id="UrNAwTuo9XHeN6puUlUN-26" value="" style="endArrow=classic;html=1;entryX=1;entryY=0.5;entryDx=0;entryDy=0;" edge="1" parent="1">
          <mxGeometry width="50" height="50" relative="1" as="geometry">
            <mxPoint x="556" y="323" as="sourcePoint" />
            <mxPoint x="516" y="323" as="targetPoint" />
            <mxPoint as="offset" />
          </mxGeometry>
        </mxCell>
        <mxCell id="UrNAwTuo9XHeN6puUlUN-27" value="standard library&#xa;code" style="shape=image;verticalLabelPosition=middle;labelBackgroundColor=#ffffff;verticalAlign=middle;aspect=fixed;imageAspect=0;image=data:image/svg+xml,PHN2ZyB4bWxucz0iaHR0cDovL3d3dy53My5vcmcvMjAwMC9zdmciIHZpZXdCb3g9IjAgMCAyNCAyNCI+PHBhdGggZD0iTTYgMkM0Ljg5IDIgNCAyLjkgNCA0VjIwQzQgMjEuMTEgNC44OSAyMiA2IDIySDEyVjIwSDZWNEgxM1Y5SDE4VjEySDIwVjhMMTQgMk0xOCAxNEMxNy44NyAxNCAxNy43NiAxNC4wOSAxNy43NCAxNC4yMUwxNy41NSAxNS41M0MxNy4yNSAxNS42NiAxNi45NiAxNS44MiAxNi43IDE2TDE1LjQ2IDE1LjVDMTUuMzUgMTUuNSAxNS4yMiAxNS41IDE1LjE1IDE1LjYzTDE0LjE1IDE3LjM2QzE0LjA5IDE3LjQ3IDE0LjExIDE3LjYgMTQuMjEgMTcuNjhMMTUuMjcgMTguNUMxNS4yNSAxOC42NyAxNS4yNCAxOC44MyAxNS4yNCAxOUMxNS4yNCAxOS4xNyAxNS4yNSAxOS4zMyAxNS4yNyAxOS41TDE0LjIxIDIwLjMyQzE0LjEyIDIwLjQgMTQuMDkgMjAuNTMgMTQuMTUgMjAuNjRMMTUuMTUgMjIuMzdDMTUuMjEgMjIuNSAxNS4zNCAyMi41IDE1LjQ2IDIyLjVMMTYuNyAyMkMxNi45NiAyMi4xOCAxNy4yNCAyMi4zNSAxNy41NSAyMi40N0wxNy43NCAyMy43OUMxNy43NiAyMy45MSAxNy44NiAyNCAxOCAyNEgyMEMyMC4xMSAyNCAyMC4yMiAyMy45MSAyMC4yNCAyMy43OUwyMC40MyAyMi40N0MyMC43MyAyMi4zNCAyMSAyMi4xOCAyMS4yNyAyMkwyMi41IDIyLjVDMjIuNjMgMjIuNSAyMi43NiAyMi41IDIyLjgzIDIyLjM3TDIzLjgzIDIwLjY0QzIzLjg5IDIwLjUzIDIzLjg2IDIwLjQgMjMuNzcgMjAuMzJMMjIuNyAxOS41QzIyLjcyIDE5LjMzIDIyLjc0IDE5LjE3IDIyLjc0IDE5QzIyLjc0IDE4LjgzIDIyLjczIDE4LjY3IDIyLjcgMTguNUwyMy43NiAxNy42OEMyMy44NSAxNy42IDIzLjg4IDE3LjQ3IDIzLjgyIDE3LjM2TDIyLjgyIDE1LjYzQzIyLjc2IDE1LjUgMjIuNjMgMTUuNSAyMi41IDE1LjVMMjEuMjcgMTZDMjEgMTUuODIgMjAuNzMgMTUuNjUgMjAuNDIgMTUuNTNMMjAuMjMgMTQuMjFDMjAuMjIgMTQuMDkgMjAuMTEgMTQgMjAgMTRNMTkgMTcuNUMxOS44MyAxNy41IDIwLjUgMTguMTcgMjAuNSAxOUMyMC41IDE5LjgzIDE5LjgzIDIwLjUgMTkgMjAuNUMxOC4xNiAyMC41IDE3LjUgMTkuODMgMTcuNSAxOUMxNy41IDE4LjE3IDE4LjE3IDE3LjUgMTkgMTcuNVoiLz48L3N2Zz4=;labelPosition=right;align=left;" vertex="1" parent="1">
          <mxGeometry x="561" y="290" width="60" height="60" as="geometry" />
        </mxCell>
        <mxCell id="UrNAwTuo9XHeN6puUlUN-46" value="main.o" style="shape=image;verticalLabelPosition=middle;labelBackgroundColor=#ffffff;verticalAlign=middle;aspect=fixed;imageAspect=0;image=data:image/svg+xml,PHN2ZyB4bWxucz0iaHR0cDovL3d3dy53My5vcmcvMjAwMC9zdmciIHZpZXdCb3g9IjAgMCAyNCAyNCI+PHBhdGggZD0iTTYgMkM0Ljg5IDIgNCAyLjkgNCA0VjIwQzQgMjEuMTEgNC44OSAyMiA2IDIySDEyVjIwSDZWNEgxM1Y5SDE4VjEySDIwVjhMMTQgMk0xOCAxNEMxNy44NyAxNCAxNy43NiAxNC4wOSAxNy43NCAxNC4yMUwxNy41NSAxNS41M0MxNy4yNSAxNS42NiAxNi45NiAxNS44MiAxNi43IDE2TDE1LjQ2IDE1LjVDMTUuMzUgMTUuNSAxNS4yMiAxNS41IDE1LjE1IDE1LjYzTDE0LjE1IDE3LjM2QzE0LjA5IDE3LjQ3IDE0LjExIDE3LjYgMTQuMjEgMTcuNjhMMTUuMjcgMTguNUMxNS4yNSAxOC42NyAxNS4yNCAxOC44MyAxNS4yNCAxOUMxNS4yNCAxOS4xNyAxNS4yNSAxOS4zMyAxNS4yNyAxOS41TDE0LjIxIDIwLjMyQzE0LjEyIDIwLjQgMTQuMDkgMjAuNTMgMTQuMTUgMjAuNjRMMTUuMTUgMjIuMzdDMTUuMjEgMjIuNSAxNS4zNCAyMi41IDE1LjQ2IDIyLjVMMTYuNyAyMkMxNi45NiAyMi4xOCAxNy4yNCAyMi4zNSAxNy41NSAyMi40N0wxNy43NCAyMy43OUMxNy43NiAyMy45MSAxNy44NiAyNCAxOCAyNEgyMEMyMC4xMSAyNCAyMC4yMiAyMy45MSAyMC4yNCAyMy43OUwyMC40MyAyMi40N0MyMC43MyAyMi4zNCAyMSAyMi4xOCAyMS4yNyAyMkwyMi41IDIyLjVDMjIuNjMgMjIuNSAyMi43NiAyMi41IDIyLjgzIDIyLjM3TDIzLjgzIDIwLjY0QzIzLjg5IDIwLjUzIDIzLjg2IDIwLjQgMjMuNzcgMjAuMzJMMjIuNyAxOS41QzIyLjcyIDE5LjMzIDIyLjc0IDE5LjE3IDIyLjc0IDE5QzIyLjc0IDE4LjgzIDIyLjczIDE4LjY3IDIyLjcgMTguNUwyMy43NiAxNy42OEMyMy44NSAxNy42IDIzLjg4IDE3LjQ3IDIzLjgyIDE3LjM2TDIyLjgyIDE1LjYzQzIyLjc2IDE1LjUgMjIuNjMgMTUuNSAyMi41IDE1LjVMMjEuMjcgMTZDMjEgMTUuODIgMjAuNzMgMTUuNjUgMjAuNDIgMTUuNTNMMjAuMjMgMTQuMjFDMjAuMjIgMTQuMDkgMjAuMTEgMTQgMjAgMTRNMTkgMTcuNUMxOS44MyAxNy41IDIwLjUgMTguMTcgMjAuNSAxOUMyMC41IDE5LjgzIDE5LjgzIDIwLjUgMTkgMjAuNUMxOC4xNiAyMC41IDE3LjUgMTkuODMgMTcuNSAxOUMxNy41IDE4LjE3IDE4LjE3IDE3LjUgMTkgMTcuNVoiLz48L3N2Zz4=;labelPosition=left;align=right;" vertex="1" parent="1">
          <mxGeometry x="100" y="1705" width="60" height="60" as="geometry" />
        </mxCell>
        <mxCell id="UrNAwTuo9XHeN6puUlUN-47" value="" style="endArrow=classic;html=1;" edge="1" parent="1" source="UrNAwTuo9XHeN6puUlUN-49" target="UrNAwTuo9XHeN6puUlUN-46">
          <mxGeometry width="50" height="50" relative="1" as="geometry">
            <mxPoint x="119" y="1655" as="sourcePoint" />
            <mxPoint x="189" y="1765" as="targetPoint" />
          </mxGeometry>
        </mxCell>
        <mxCell id="UrNAwTuo9XHeN6puUlUN-48" value="program.exe" style="shape=image;verticalLabelPosition=middle;labelBackgroundColor=#ffffff;verticalAlign=middle;aspect=fixed;imageAspect=0;image=data:image/svg+xml,PHN2ZyB4bWxucz0iaHR0cDovL3d3dy53My5vcmcvMjAwMC9zdmciIHZpZXdCb3g9IjAgMCAyNCAyNCI+PHBhdGggZD0iTTYgMkM0Ljg5IDIgNCAyLjkgNCA0VjIwQzQgMjEuMTEgNC44OSAyMiA2IDIySDEyVjIwSDZWNEgxM1Y5SDE4VjEySDIwVjhMMTQgMk0xOCAxNEMxNy44NyAxNCAxNy43NiAxNC4wOSAxNy43NCAxNC4yMUwxNy41NSAxNS41M0MxNy4yNSAxNS42NiAxNi45NiAxNS44MiAxNi43IDE2TDE1LjQ2IDE1LjVDMTUuMzUgMTUuNSAxNS4yMiAxNS41IDE1LjE1IDE1LjYzTDE0LjE1IDE3LjM2QzE0LjA5IDE3LjQ3IDE0LjExIDE3LjYgMTQuMjEgMTcuNjhMMTUuMjcgMTguNUMxNS4yNSAxOC42NyAxNS4yNCAxOC44MyAxNS4yNCAxOUMxNS4yNCAxOS4xNyAxNS4yNSAxOS4zMyAxNS4yNyAxOS41TDE0LjIxIDIwLjMyQzE0LjEyIDIwLjQgMTQuMDkgMjAuNTMgMTQuMTUgMjAuNjRMMTUuMTUgMjIuMzdDMTUuMjEgMjIuNSAxNS4zNCAyMi41IDE1LjQ2IDIyLjVMMTYuNyAyMkMxNi45NiAyMi4xOCAxNy4yNCAyMi4zNSAxNy41NSAyMi40N0wxNy43NCAyMy43OUMxNy43NiAyMy45MSAxNy44NiAyNCAxOCAyNEgyMEMyMC4xMSAyNCAyMC4yMiAyMy45MSAyMC4yNCAyMy43OUwyMC40MyAyMi40N0MyMC43MyAyMi4zNCAyMSAyMi4xOCAyMS4yNyAyMkwyMi41IDIyLjVDMjIuNjMgMjIuNSAyMi43NiAyMi41IDIyLjgzIDIyLjM3TDIzLjgzIDIwLjY0QzIzLjg5IDIwLjUzIDIzLjg2IDIwLjQgMjMuNzcgMjAuMzJMMjIuNyAxOS41QzIyLjcyIDE5LjMzIDIyLjc0IDE5LjE3IDIyLjc0IDE5QzIyLjc0IDE4LjgzIDIyLjczIDE4LjY3IDIyLjcgMTguNUwyMy43NiAxNy42OEMyMy44NSAxNy42IDIzLjg4IDE3LjQ3IDIzLjgyIDE3LjM2TDIyLjgyIDE1LjYzQzIyLjc2IDE1LjUgMjIuNjMgMTUuNSAyMi41IDE1LjVMMjEuMjcgMTZDMjEgMTUuODIgMjAuNzMgMTUuNjUgMjAuNDIgMTUuNTNMMjAuMjMgMTQuMjFDMjAuMjIgMTQuMDkgMjAuMTEgMTQgMjAgMTRNMTkgMTcuNUMxOS44MyAxNy41IDIwLjUgMTguMTcgMjAuNSAxOUMyMC41IDE5LjgzIDE5LjgzIDIwLjUgMTkgMjAuNUMxOC4xNiAyMC41IDE3LjUgMTkuODMgMTcuNSAxOUMxNy41IDE4LjE3IDE4LjE3IDE3LjUgMTkgMTcuNVoiLz48L3N2Zz4=;labelPosition=left;align=right;" vertex="1" parent="1">
          <mxGeometry x="200" y="1825" width="60" height="60" as="geometry" />
        </mxCell>
        <mxCell id="UrNAwTuo9XHeN6puUlUN-49" value="main.cpp" style="shape=image;verticalLabelPosition=middle;labelBackgroundColor=#ffffff;verticalAlign=middle;aspect=fixed;imageAspect=0;image=data:image/svg+xml,PHN2ZyB4bWxucz0iaHR0cDovL3d3dy53My5vcmcvMjAwMC9zdmciIHZpZXdCb3g9IjAgMCAyNCAyNCI+PHBhdGggZD0iTTYsMkEyLDIgMCAwLDAgNCw0VjIwQTIsMiAwIDAsMCA2LDIySDE4QTIsMiAwIDAsMCAyMCwyMFY4TDE0LDJINk02LDRIMTNWOUgxOFYyMEg2VjRNOCwxMlYxNEgxNlYxMkg4TTgsMTZWMThIMTNWMTZIOFoiLz48L3N2Zz4=;labelPosition=left;align=right;" vertex="1" parent="1">
          <mxGeometry x="100" y="1595" width="60" height="60" as="geometry" />
        </mxCell>
        <mxCell id="UrNAwTuo9XHeN6puUlUN-50" value="" style="endArrow=classic;html=1;exitX=0.5;exitY=1;exitDx=0;exitDy=0;entryX=0.25;entryY=0;entryDx=0;entryDy=0;" edge="1" parent="1" source="UrNAwTuo9XHeN6puUlUN-46" target="UrNAwTuo9XHeN6puUlUN-48">
          <mxGeometry width="50" height="50" relative="1" as="geometry">
            <mxPoint x="229" y="1665" as="sourcePoint" />
            <mxPoint x="229" y="1705" as="targetPoint" />
            <mxPoint as="offset" />
          </mxGeometry>
        </mxCell>
        <mxCell id="UrNAwTuo9XHeN6puUlUN-51" value="library.o" style="shape=image;verticalLabelPosition=middle;labelBackgroundColor=#ffffff;verticalAlign=middle;aspect=fixed;imageAspect=0;image=data:image/svg+xml,PHN2ZyB4bWxucz0iaHR0cDovL3d3dy53My5vcmcvMjAwMC9zdmciIHZpZXdCb3g9IjAgMCAyNCAyNCI+PHBhdGggZD0iTTYgMkM0Ljg5IDIgNCAyLjkgNCA0VjIwQzQgMjEuMTEgNC44OSAyMiA2IDIySDEyVjIwSDZWNEgxM1Y5SDE4VjEySDIwVjhMMTQgMk0xOCAxNEMxNy44NyAxNCAxNy43NiAxNC4wOSAxNy43NCAxNC4yMUwxNy41NSAxNS41M0MxNy4yNSAxNS42NiAxNi45NiAxNS44MiAxNi43IDE2TDE1LjQ2IDE1LjVDMTUuMzUgMTUuNSAxNS4yMiAxNS41IDE1LjE1IDE1LjYzTDE0LjE1IDE3LjM2QzE0LjA5IDE3LjQ3IDE0LjExIDE3LjYgMTQuMjEgMTcuNjhMMTUuMjcgMTguNUMxNS4yNSAxOC42NyAxNS4yNCAxOC44MyAxNS4yNCAxOUMxNS4yNCAxOS4xNyAxNS4yNSAxOS4zMyAxNS4yNyAxOS41TDE0LjIxIDIwLjMyQzE0LjEyIDIwLjQgMTQuMDkgMjAuNTMgMTQuMTUgMjAuNjRMMTUuMTUgMjIuMzdDMTUuMjEgMjIuNSAxNS4zNCAyMi41IDE1LjQ2IDIyLjVMMTYuNyAyMkMxNi45NiAyMi4xOCAxNy4yNCAyMi4zNSAxNy41NSAyMi40N0wxNy43NCAyMy43OUMxNy43NiAyMy45MSAxNy44NiAyNCAxOCAyNEgyMEMyMC4xMSAyNCAyMC4yMiAyMy45MSAyMC4yNCAyMy43OUwyMC40MyAyMi40N0MyMC43MyAyMi4zNCAyMSAyMi4xOCAyMS4yNyAyMkwyMi41IDIyLjVDMjIuNjMgMjIuNSAyMi43NiAyMi41IDIyLjgzIDIyLjM3TDIzLjgzIDIwLjY0QzIzLjg5IDIwLjUzIDIzLjg2IDIwLjQgMjMuNzcgMjAuMzJMMjIuNyAxOS41QzIyLjcyIDE5LjMzIDIyLjc0IDE5LjE3IDIyLjc0IDE5QzIyLjc0IDE4LjgzIDIyLjczIDE4LjY3IDIyLjcgMTguNUwyMy43NiAxNy42OEMyMy44NSAxNy42IDIzLjg4IDE3LjQ3IDIzLjgyIDE3LjM2TDIyLjgyIDE1LjYzQzIyLjc2IDE1LjUgMjIuNjMgMTUuNSAyMi41IDE1LjVMMjEuMjcgMTZDMjEgMTUuODIgMjAuNzMgMTUuNjUgMjAuNDIgMTUuNTNMMjAuMjMgMTQuMjFDMjAuMjIgMTQuMDkgMjAuMTEgMTQgMjAgMTRNMTkgMTcuNUMxOS44MyAxNy41IDIwLjUgMTguMTcgMjAuNSAxOUMyMC41IDE5LjgzIDE5LjgzIDIwLjUgMTkgMjAuNUMxOC4xNiAyMC41IDE3LjUgMTkuODMgMTcuNSAxOUMxNy41IDE4LjE3IDE4LjE3IDE3LjUgMTkgMTcuNVoiLz48L3N2Zz4=;labelPosition=right;align=left;" vertex="1" parent="1">
          <mxGeometry x="305" y="1705" width="60" height="60" as="geometry" />
        </mxCell>
        <mxCell id="UrNAwTuo9XHeN6puUlUN-52" value="" style="endArrow=classic;html=1;labelPosition=center;verticalLabelPosition=middle;align=center;verticalAlign=middle;" edge="1" parent="1" source="UrNAwTuo9XHeN6puUlUN-53" target="UrNAwTuo9XHeN6puUlUN-51">
          <mxGeometry width="50" height="50" relative="1" as="geometry">
            <mxPoint x="335" y="1530" as="sourcePoint" />
            <mxPoint x="405" y="1640" as="targetPoint" />
            <mxPoint as="offset" />
          </mxGeometry>
        </mxCell>
        <mxCell id="UrNAwTuo9XHeN6puUlUN-53" value="library.cxx &#xa;(module)" style="shape=image;verticalLabelPosition=middle;labelBackgroundColor=#ffffff;verticalAlign=middle;aspect=fixed;imageAspect=0;image=data:image/svg+xml,PHN2ZyB4bWxucz0iaHR0cDovL3d3dy53My5vcmcvMjAwMC9zdmciIHZpZXdCb3g9IjAgMCAyNCAyNCI+PHBhdGggZD0iTTYsMkEyLDIgMCAwLDAgNCw0VjIwQTIsMiAwIDAsMCA2LDIySDE4QTIsMiAwIDAsMCAyMCwyMFY4TDE0LDJINk02LDRIMTNWOUgxOFYyMEg2VjRNOCwxMlYxNEgxNlYxMkg4TTgsMTZWMThIMTNWMTZIOFoiLz48L3N2Zz4=;labelPosition=right;align=left;" vertex="1" parent="1">
          <mxGeometry x="305" y="1500" width="60" height="60" as="geometry" />
        </mxCell>
        <mxCell id="UrNAwTuo9XHeN6puUlUN-54" value="" style="endArrow=classic;html=1;exitX=0.5;exitY=1;exitDx=0;exitDy=0;labelPosition=center;verticalLabelPosition=middle;align=center;verticalAlign=middle;entryX=0.75;entryY=0;entryDx=0;entryDy=0;" edge="1" parent="1" source="UrNAwTuo9XHeN6puUlUN-51" target="UrNAwTuo9XHeN6puUlUN-48">
          <mxGeometry x="0.0331" width="50" height="50" relative="1" as="geometry">
            <mxPoint x="385" y="1665" as="sourcePoint" />
            <mxPoint x="304" y="1825" as="targetPoint" />
            <mxPoint as="offset" />
          </mxGeometry>
        </mxCell>
        <mxCell id="UrNAwTuo9XHeN6puUlUN-57" value="Link" style="rounded=0;whiteSpace=wrap;html=1;labelBackgroundColor=none;fillColor=#f5f5f5;strokeColor=#666666;fontColor=#333333;" vertex="1" parent="1">
          <mxGeometry x="110" y="1785" width="240" height="20" as="geometry" />
        </mxCell>
        <mxCell id="UrNAwTuo9XHeN6puUlUN-58" value="Compile" style="rounded=0;whiteSpace=wrap;html=1;labelBackgroundColor=none;fillColor=#f5f5f5;strokeColor=#666666;fontColor=#333333;" vertex="1" parent="1">
          <mxGeometry x="100" y="1665" width="60" height="20" as="geometry" />
        </mxCell>
        <mxCell id="UrNAwTuo9XHeN6puUlUN-59" value="Compile" style="rounded=0;whiteSpace=wrap;html=1;labelBackgroundColor=none;fillColor=#f5f5f5;strokeColor=#666666;fontColor=#333333;" vertex="1" parent="1">
          <mxGeometry x="305" y="1615" width="60" height="20" as="geometry" />
        </mxCell>
        <mxCell id="UrNAwTuo9XHeN6puUlUN-81" value="Import" style="rounded=0;whiteSpace=wrap;html=1;labelBackgroundColor=none;fillColor=#f5f5f5;strokeColor=#666666;fontColor=#333333;" vertex="1" parent="1">
          <mxGeometry x="191" y="1575" width="60" height="20" as="geometry" />
        </mxCell>
        <mxCell id="UrNAwTuo9XHeN6puUlUN-82" value="" style="endArrow=none;dashed=1;html=1;align=center;entryX=0;entryY=1;entryDx=0;entryDy=0;" edge="1" parent="1" target="UrNAwTuo9XHeN6puUlUN-90">
          <mxGeometry width="50" height="50" relative="1" as="geometry">
            <mxPoint x="138" y="2071" as="sourcePoint" />
            <mxPoint x="205" y="2030" as="targetPoint" />
          </mxGeometry>
        </mxCell>
        <mxCell id="UrNAwTuo9XHeN6puUlUN-83" value="main.o" style="shape=image;verticalLabelPosition=middle;labelBackgroundColor=#ffffff;verticalAlign=middle;aspect=fixed;imageAspect=0;image=data:image/svg+xml,PHN2ZyB4bWxucz0iaHR0cDovL3d3dy53My5vcmcvMjAwMC9zdmciIHZpZXdCb3g9IjAgMCAyNCAyNCI+PHBhdGggZD0iTTYgMkM0Ljg5IDIgNCAyLjkgNCA0VjIwQzQgMjEuMTEgNC44OSAyMiA2IDIySDEyVjIwSDZWNEgxM1Y5SDE4VjEySDIwVjhMMTQgMk0xOCAxNEMxNy44NyAxNCAxNy43NiAxNC4wOSAxNy43NCAxNC4yMUwxNy41NSAxNS41M0MxNy4yNSAxNS42NiAxNi45NiAxNS44MiAxNi43IDE2TDE1LjQ2IDE1LjVDMTUuMzUgMTUuNSAxNS4yMiAxNS41IDE1LjE1IDE1LjYzTDE0LjE1IDE3LjM2QzE0LjA5IDE3LjQ3IDE0LjExIDE3LjYgMTQuMjEgMTcuNjhMMTUuMjcgMTguNUMxNS4yNSAxOC42NyAxNS4yNCAxOC44MyAxNS4yNCAxOUMxNS4yNCAxOS4xNyAxNS4yNSAxOS4zMyAxNS4yNyAxOS41TDE0LjIxIDIwLjMyQzE0LjEyIDIwLjQgMTQuMDkgMjAuNTMgMTQuMTUgMjAuNjRMMTUuMTUgMjIuMzdDMTUuMjEgMjIuNSAxNS4zNCAyMi41IDE1LjQ2IDIyLjVMMTYuNyAyMkMxNi45NiAyMi4xOCAxNy4yNCAyMi4zNSAxNy41NSAyMi40N0wxNy43NCAyMy43OUMxNy43NiAyMy45MSAxNy44NiAyNCAxOCAyNEgyMEMyMC4xMSAyNCAyMC4yMiAyMy45MSAyMC4yNCAyMy43OUwyMC40MyAyMi40N0MyMC43MyAyMi4zNCAyMSAyMi4xOCAyMS4yNyAyMkwyMi41IDIyLjVDMjIuNjMgMjIuNSAyMi43NiAyMi41IDIyLjgzIDIyLjM3TDIzLjgzIDIwLjY0QzIzLjg5IDIwLjUzIDIzLjg2IDIwLjQgMjMuNzcgMjAuMzJMMjIuNyAxOS41QzIyLjcyIDE5LjMzIDIyLjc0IDE5LjE3IDIyLjc0IDE5QzIyLjc0IDE4LjgzIDIyLjczIDE4LjY3IDIyLjcgMTguNUwyMy43NiAxNy42OEMyMy44NSAxNy42IDIzLjg4IDE3LjQ3IDIzLjgyIDE3LjM2TDIyLjgyIDE1LjYzQzIyLjc2IDE1LjUgMjIuNjMgMTUuNSAyMi41IDE1LjVMMjEuMjcgMTZDMjEgMTUuODIgMjAuNzMgMTUuNjUgMjAuNDIgMTUuNTNMMjAuMjMgMTQuMjFDMjAuMjIgMTQuMDkgMjAuMTEgMTQgMjAgMTRNMTkgMTcuNUMxOS44MyAxNy41IDIwLjUgMTguMTcgMjAuNSAxOUMyMC41IDE5LjgzIDE5LjgzIDIwLjUgMTkgMjAuNUMxOC4xNiAyMC41IDE3LjUgMTkuODMgMTcuNSAxOUMxNy41IDE4LjE3IDE4LjE3IDE3LjUgMTkgMTcuNVoiLz48L3N2Zz4=;labelPosition=left;align=right;" vertex="1" parent="1">
          <mxGeometry x="100" y="2165" width="60" height="60" as="geometry" />
        </mxCell>
        <mxCell id="UrNAwTuo9XHeN6puUlUN-84" value="" style="endArrow=classic;html=1;" edge="1" parent="1" source="UrNAwTuo9XHeN6puUlUN-86" target="UrNAwTuo9XHeN6puUlUN-83">
          <mxGeometry width="50" height="50" relative="1" as="geometry">
            <mxPoint x="119" y="2115" as="sourcePoint" />
            <mxPoint x="189" y="2225" as="targetPoint" />
          </mxGeometry>
        </mxCell>
        <mxCell id="UrNAwTuo9XHeN6puUlUN-85" value="program.exe" style="shape=image;verticalLabelPosition=middle;labelBackgroundColor=#ffffff;verticalAlign=middle;aspect=fixed;imageAspect=0;image=data:image/svg+xml,PHN2ZyB4bWxucz0iaHR0cDovL3d3dy53My5vcmcvMjAwMC9zdmciIHZpZXdCb3g9IjAgMCAyNCAyNCI+PHBhdGggZD0iTTYgMkM0Ljg5IDIgNCAyLjkgNCA0VjIwQzQgMjEuMTEgNC44OSAyMiA2IDIySDEyVjIwSDZWNEgxM1Y5SDE4VjEySDIwVjhMMTQgMk0xOCAxNEMxNy44NyAxNCAxNy43NiAxNC4wOSAxNy43NCAxNC4yMUwxNy41NSAxNS41M0MxNy4yNSAxNS42NiAxNi45NiAxNS44MiAxNi43IDE2TDE1LjQ2IDE1LjVDMTUuMzUgMTUuNSAxNS4yMiAxNS41IDE1LjE1IDE1LjYzTDE0LjE1IDE3LjM2QzE0LjA5IDE3LjQ3IDE0LjExIDE3LjYgMTQuMjEgMTcuNjhMMTUuMjcgMTguNUMxNS4yNSAxOC42NyAxNS4yNCAxOC44MyAxNS4yNCAxOUMxNS4yNCAxOS4xNyAxNS4yNSAxOS4zMyAxNS4yNyAxOS41TDE0LjIxIDIwLjMyQzE0LjEyIDIwLjQgMTQuMDkgMjAuNTMgMTQuMTUgMjAuNjRMMTUuMTUgMjIuMzdDMTUuMjEgMjIuNSAxNS4zNCAyMi41IDE1LjQ2IDIyLjVMMTYuNyAyMkMxNi45NiAyMi4xOCAxNy4yNCAyMi4zNSAxNy41NSAyMi40N0wxNy43NCAyMy43OUMxNy43NiAyMy45MSAxNy44NiAyNCAxOCAyNEgyMEMyMC4xMSAyNCAyMC4yMiAyMy45MSAyMC4yNCAyMy43OUwyMC40MyAyMi40N0MyMC43MyAyMi4zNCAyMSAyMi4xOCAyMS4yNyAyMkwyMi41IDIyLjVDMjIuNjMgMjIuNSAyMi43NiAyMi41IDIyLjgzIDIyLjM3TDIzLjgzIDIwLjY0QzIzLjg5IDIwLjUzIDIzLjg2IDIwLjQgMjMuNzcgMjAuMzJMMjIuNyAxOS41QzIyLjcyIDE5LjMzIDIyLjc0IDE5LjE3IDIyLjc0IDE5QzIyLjc0IDE4LjgzIDIyLjczIDE4LjY3IDIyLjcgMTguNUwyMy43NiAxNy42OEMyMy44NSAxNy42IDIzLjg4IDE3LjQ3IDIzLjgyIDE3LjM2TDIyLjgyIDE1LjYzQzIyLjc2IDE1LjUgMjIuNjMgMTUuNSAyMi41IDE1LjVMMjEuMjcgMTZDMjEgMTUuODIgMjAuNzMgMTUuNjUgMjAuNDIgMTUuNTNMMjAuMjMgMTQuMjFDMjAuMjIgMTQuMDkgMjAuMTEgMTQgMjAgMTRNMTkgMTcuNUMxOS44MyAxNy41IDIwLjUgMTguMTcgMjAuNSAxOUMyMC41IDE5LjgzIDE5LjgzIDIwLjUgMTkgMjAuNUMxOC4xNiAyMC41IDE3LjUgMTkuODMgMTcuNSAxOUMxNy41IDE4LjE3IDE4LjE3IDE3LjUgMTkgMTcuNVoiLz48L3N2Zz4=;labelPosition=left;align=right;" vertex="1" parent="1">
          <mxGeometry x="185" y="2285" width="60" height="60" as="geometry" />
        </mxCell>
        <mxCell id="UrNAwTuo9XHeN6puUlUN-86" value="main.cpp" style="shape=image;verticalLabelPosition=middle;labelBackgroundColor=#ffffff;verticalAlign=middle;aspect=fixed;imageAspect=0;image=data:image/svg+xml,PHN2ZyB4bWxucz0iaHR0cDovL3d3dy53My5vcmcvMjAwMC9zdmciIHZpZXdCb3g9IjAgMCAyNCAyNCI+PHBhdGggZD0iTTYsMkEyLDIgMCAwLDAgNCw0VjIwQTIsMiAwIDAsMCA2LDIySDE4QTIsMiAwIDAsMCAyMCwyMFY4TDE0LDJINk02LDRIMTNWOUgxOFYyMEg2VjRNOCwxMlYxNEgxNlYxMkg4TTgsMTZWMThIMTNWMTZIOFoiLz48L3N2Zz4=;labelPosition=left;align=right;" vertex="1" parent="1">
          <mxGeometry x="100" y="2055" width="60" height="60" as="geometry" />
        </mxCell>
        <mxCell id="UrNAwTuo9XHeN6puUlUN-87" value="" style="endArrow=classic;html=1;exitX=0.5;exitY=1;exitDx=0;exitDy=0;entryX=0.25;entryY=0;entryDx=0;entryDy=0;" edge="1" parent="1" source="UrNAwTuo9XHeN6puUlUN-83" target="UrNAwTuo9XHeN6puUlUN-85">
          <mxGeometry width="50" height="50" relative="1" as="geometry">
            <mxPoint x="214" y="2125" as="sourcePoint" />
            <mxPoint x="214" y="2165" as="targetPoint" />
            <mxPoint as="offset" />
          </mxGeometry>
        </mxCell>
        <mxCell id="UrNAwTuo9XHeN6puUlUN-88" value="library.o" style="shape=image;verticalLabelPosition=middle;labelBackgroundColor=#ffffff;verticalAlign=middle;aspect=fixed;imageAspect=0;image=data:image/svg+xml,PHN2ZyB4bWxucz0iaHR0cDovL3d3dy53My5vcmcvMjAwMC9zdmciIHZpZXdCb3g9IjAgMCAyNCAyNCI+PHBhdGggZD0iTTYgMkM0Ljg5IDIgNCAyLjkgNCA0VjIwQzQgMjEuMTEgNC44OSAyMiA2IDIySDEyVjIwSDZWNEgxM1Y5SDE4VjEySDIwVjhMMTQgMk0xOCAxNEMxNy44NyAxNCAxNy43NiAxNC4wOSAxNy43NCAxNC4yMUwxNy41NSAxNS41M0MxNy4yNSAxNS42NiAxNi45NiAxNS44MiAxNi43IDE2TDE1LjQ2IDE1LjVDMTUuMzUgMTUuNSAxNS4yMiAxNS41IDE1LjE1IDE1LjYzTDE0LjE1IDE3LjM2QzE0LjA5IDE3LjQ3IDE0LjExIDE3LjYgMTQuMjEgMTcuNjhMMTUuMjcgMTguNUMxNS4yNSAxOC42NyAxNS4yNCAxOC44MyAxNS4yNCAxOUMxNS4yNCAxOS4xNyAxNS4yNSAxOS4zMyAxNS4yNyAxOS41TDE0LjIxIDIwLjMyQzE0LjEyIDIwLjQgMTQuMDkgMjAuNTMgMTQuMTUgMjAuNjRMMTUuMTUgMjIuMzdDMTUuMjEgMjIuNSAxNS4zNCAyMi41IDE1LjQ2IDIyLjVMMTYuNyAyMkMxNi45NiAyMi4xOCAxNy4yNCAyMi4zNSAxNy41NSAyMi40N0wxNy43NCAyMy43OUMxNy43NiAyMy45MSAxNy44NiAyNCAxOCAyNEgyMEMyMC4xMSAyNCAyMC4yMiAyMy45MSAyMC4yNCAyMy43OUwyMC40MyAyMi40N0MyMC43MyAyMi4zNCAyMSAyMi4xOCAyMS4yNyAyMkwyMi41IDIyLjVDMjIuNjMgMjIuNSAyMi43NiAyMi41IDIyLjgzIDIyLjM3TDIzLjgzIDIwLjY0QzIzLjg5IDIwLjUzIDIzLjg2IDIwLjQgMjMuNzcgMjAuMzJMMjIuNyAxOS41QzIyLjcyIDE5LjMzIDIyLjc0IDE5LjE3IDIyLjc0IDE5QzIyLjc0IDE4LjgzIDIyLjczIDE4LjY3IDIyLjcgMTguNUwyMy43NiAxNy42OEMyMy44NSAxNy42IDIzLjg4IDE3LjQ3IDIzLjgyIDE3LjM2TDIyLjgyIDE1LjYzQzIyLjc2IDE1LjUgMjIuNjMgMTUuNSAyMi41IDE1LjVMMjEuMjcgMTZDMjEgMTUuODIgMjAuNzMgMTUuNjUgMjAuNDIgMTUuNTNMMjAuMjMgMTQuMjFDMjAuMjIgMTQuMDkgMjAuMTEgMTQgMjAgMTRNMTkgMTcuNUMxOS44MyAxNy41IDIwLjUgMTguMTcgMjAuNSAxOUMyMC41IDE5LjgzIDE5LjgzIDIwLjUgMTkgMjAuNUMxOC4xNiAyMC41IDE3LjUgMTkuODMgMTcuNSAxOUMxNy41IDE4LjE3IDE4LjE3IDE3LjUgMTkgMTcuNVoiLz48L3N2Zz4=;labelPosition=right;align=left;" vertex="1" parent="1">
          <mxGeometry x="290" y="2165" width="60" height="60" as="geometry" />
        </mxCell>
        <mxCell id="UrNAwTuo9XHeN6puUlUN-89" value="" style="endArrow=classic;html=1;labelPosition=center;verticalLabelPosition=middle;align=center;verticalAlign=middle;" edge="1" parent="1" source="UrNAwTuo9XHeN6puUlUN-90" target="UrNAwTuo9XHeN6puUlUN-88">
          <mxGeometry width="50" height="50" relative="1" as="geometry">
            <mxPoint x="320" y="1990" as="sourcePoint" />
            <mxPoint x="390" y="2100" as="targetPoint" />
            <mxPoint as="offset" />
          </mxGeometry>
        </mxCell>
        <mxCell id="UrNAwTuo9XHeN6puUlUN-90" value="library.cxx &#xa;(module)" style="shape=image;verticalLabelPosition=middle;labelBackgroundColor=#ffffff;verticalAlign=middle;aspect=fixed;imageAspect=0;image=data:image/svg+xml,PHN2ZyB4bWxucz0iaHR0cDovL3d3dy53My5vcmcvMjAwMC9zdmciIHZpZXdCb3g9IjAgMCAyNCAyNCI+PHBhdGggZD0iTTYsMkEyLDIgMCAwLDAgNCw0VjIwQTIsMiAwIDAsMCA2LDIySDE4QTIsMiAwIDAsMCAyMCwyMFY4TDE0LDJINk02LDRIMTNWOUgxOFYyMEg2VjRNOCwxMlYxNEgxNlYxMkg4TTgsMTZWMThIMTNWMTZIOFoiLz48L3N2Zz4=;labelPosition=right;align=left;" vertex="1" parent="1">
          <mxGeometry x="290" y="1960" width="60" height="60" as="geometry" />
        </mxCell>
        <mxCell id="UrNAwTuo9XHeN6puUlUN-91" value="" style="endArrow=classic;html=1;exitX=0.5;exitY=1;exitDx=0;exitDy=0;labelPosition=center;verticalLabelPosition=middle;align=center;verticalAlign=middle;entryX=0.75;entryY=0;entryDx=0;entryDy=0;" edge="1" parent="1" source="UrNAwTuo9XHeN6puUlUN-88" target="UrNAwTuo9XHeN6puUlUN-85">
          <mxGeometry x="0.0331" width="50" height="50" relative="1" as="geometry">
            <mxPoint x="370" y="2125" as="sourcePoint" />
            <mxPoint x="289" y="2285" as="targetPoint" />
            <mxPoint as="offset" />
          </mxGeometry>
        </mxCell>
        <mxCell id="UrNAwTuo9XHeN6puUlUN-92" value="Link" style="rounded=0;whiteSpace=wrap;html=1;labelBackgroundColor=none;fillColor=#f5f5f5;strokeColor=#666666;fontColor=#333333;" vertex="1" parent="1">
          <mxGeometry x="117.5" y="2245" width="195" height="20" as="geometry" />
        </mxCell>
        <mxCell id="UrNAwTuo9XHeN6puUlUN-93" value="Compile" style="rounded=0;whiteSpace=wrap;html=1;labelBackgroundColor=none;fillColor=#f5f5f5;strokeColor=#666666;fontColor=#333333;" vertex="1" parent="1">
          <mxGeometry x="100" y="2125" width="60" height="20" as="geometry" />
        </mxCell>
        <mxCell id="UrNAwTuo9XHeN6puUlUN-94" value="Compile" style="rounded=0;whiteSpace=wrap;html=1;labelBackgroundColor=none;fillColor=#f5f5f5;strokeColor=#666666;fontColor=#333333;" vertex="1" parent="1">
          <mxGeometry x="290" y="2075" width="60" height="20" as="geometry" />
        </mxCell>
        <mxCell id="UrNAwTuo9XHeN6puUlUN-95" value="Import" style="rounded=0;whiteSpace=wrap;html=1;labelBackgroundColor=none;fillColor=#f5f5f5;strokeColor=#666666;fontColor=#333333;" vertex="1" parent="1">
          <mxGeometry x="191" y="2035" width="60" height="20" as="geometry" />
        </mxCell>
        <mxCell id="UrNAwTuo9XHeN6puUlUN-96" value="test-program.exe" style="shape=image;verticalLabelPosition=middle;labelBackgroundColor=#ffffff;verticalAlign=middle;aspect=fixed;imageAspect=0;image=data:image/svg+xml,PHN2ZyB4bWxucz0iaHR0cDovL3d3dy53My5vcmcvMjAwMC9zdmciIHZpZXdCb3g9IjAgMCAyNCAyNCI+PHBhdGggZD0iTTYgMkM0Ljg5IDIgNCAyLjkgNCA0VjIwQzQgMjEuMTEgNC44OSAyMiA2IDIySDEyVjIwSDZWNEgxM1Y5SDE4VjEySDIwVjhMMTQgMk0xOCAxNEMxNy44NyAxNCAxNy43NiAxNC4wOSAxNy43NCAxNC4yMUwxNy41NSAxNS41M0MxNy4yNSAxNS42NiAxNi45NiAxNS44MiAxNi43IDE2TDE1LjQ2IDE1LjVDMTUuMzUgMTUuNSAxNS4yMiAxNS41IDE1LjE1IDE1LjYzTDE0LjE1IDE3LjM2QzE0LjA5IDE3LjQ3IDE0LjExIDE3LjYgMTQuMjEgMTcuNjhMMTUuMjcgMTguNUMxNS4yNSAxOC42NyAxNS4yNCAxOC44MyAxNS4yNCAxOUMxNS4yNCAxOS4xNyAxNS4yNSAxOS4zMyAxNS4yNyAxOS41TDE0LjIxIDIwLjMyQzE0LjEyIDIwLjQgMTQuMDkgMjAuNTMgMTQuMTUgMjAuNjRMMTUuMTUgMjIuMzdDMTUuMjEgMjIuNSAxNS4zNCAyMi41IDE1LjQ2IDIyLjVMMTYuNyAyMkMxNi45NiAyMi4xOCAxNy4yNCAyMi4zNSAxNy41NSAyMi40N0wxNy43NCAyMy43OUMxNy43NiAyMy45MSAxNy44NiAyNCAxOCAyNEgyMEMyMC4xMSAyNCAyMC4yMiAyMy45MSAyMC4yNCAyMy43OUwyMC40MyAyMi40N0MyMC43MyAyMi4zNCAyMSAyMi4xOCAyMS4yNyAyMkwyMi41IDIyLjVDMjIuNjMgMjIuNSAyMi43NiAyMi41IDIyLjgzIDIyLjM3TDIzLjgzIDIwLjY0QzIzLjg5IDIwLjUzIDIzLjg2IDIwLjQgMjMuNzcgMjAuMzJMMjIuNyAxOS41QzIyLjcyIDE5LjMzIDIyLjc0IDE5LjE3IDIyLjc0IDE5QzIyLjc0IDE4LjgzIDIyLjczIDE4LjY3IDIyLjcgMTguNUwyMy43NiAxNy42OEMyMy44NSAxNy42IDIzLjg4IDE3LjQ3IDIzLjgyIDE3LjM2TDIyLjgyIDE1LjYzQzIyLjc2IDE1LjUgMjIuNjMgMTUuNSAyMi41IDE1LjVMMjEuMjcgMTZDMjEgMTUuODIgMjAuNzMgMTUuNjUgMjAuNDIgMTUuNTNMMjAuMjMgMTQuMjFDMjAuMjIgMTQuMDkgMjAuMTEgMTQgMjAgMTRNMTkgMTcuNUMxOS44MyAxNy41IDIwLjUgMTguMTcgMjAuNSAxOUMyMC41IDE5LjgzIDE5LjgzIDIwLjUgMTkgMjAuNUMxOC4xNiAyMC41IDE3LjUgMTkuODMgMTcuNSAxOUMxNy41IDE4LjE3IDE4LjE3IDE3LjUgMTkgMTcuNVoiLz48L3N2Zz4=;labelPosition=left;align=right;" vertex="1" parent="1">
          <mxGeometry x="410" y="2285" width="60" height="60" as="geometry" />
        </mxCell>
        <mxCell id="UrNAwTuo9XHeN6puUlUN-98" value="" style="endArrow=classic;html=1;exitX=0.5;exitY=1;exitDx=0;exitDy=0;labelPosition=center;verticalLabelPosition=middle;align=center;verticalAlign=middle;entryX=0;entryY=0;entryDx=0;entryDy=0;" edge="1" parent="1" source="UrNAwTuo9XHeN6puUlUN-88" target="UrNAwTuo9XHeN6puUlUN-96">
          <mxGeometry x="0.0331" width="50" height="50" relative="1" as="geometry">
            <mxPoint x="330" y="2235" as="sourcePoint" />
            <mxPoint x="240" y="2295" as="targetPoint" />
            <mxPoint as="offset" />
          </mxGeometry>
        </mxCell>
        <mxCell id="UrNAwTuo9XHeN6puUlUN-112" value="" style="endArrow=none;dashed=1;html=1;align=center;entryX=1;entryY=1;entryDx=0;entryDy=0;" edge="1" parent="1" target="UrNAwTuo9XHeN6puUlUN-90">
          <mxGeometry width="50" height="50" relative="1" as="geometry">
            <mxPoint x="502" y="2062" as="sourcePoint" />
            <mxPoint x="693.5" y="2020" as="targetPoint" />
          </mxGeometry>
        </mxCell>
        <mxCell id="UrNAwTuo9XHeN6puUlUN-113" value="tests.o" style="shape=image;verticalLabelPosition=middle;labelBackgroundColor=#ffffff;verticalAlign=middle;aspect=fixed;imageAspect=0;image=data:image/svg+xml,PHN2ZyB4bWxucz0iaHR0cDovL3d3dy53My5vcmcvMjAwMC9zdmciIHZpZXdCb3g9IjAgMCAyNCAyNCI+PHBhdGggZD0iTTYgMkM0Ljg5IDIgNCAyLjkgNCA0VjIwQzQgMjEuMTEgNC44OSAyMiA2IDIySDEyVjIwSDZWNEgxM1Y5SDE4VjEySDIwVjhMMTQgMk0xOCAxNEMxNy44NyAxNCAxNy43NiAxNC4wOSAxNy43NCAxNC4yMUwxNy41NSAxNS41M0MxNy4yNSAxNS42NiAxNi45NiAxNS44MiAxNi43IDE2TDE1LjQ2IDE1LjVDMTUuMzUgMTUuNSAxNS4yMiAxNS41IDE1LjE1IDE1LjYzTDE0LjE1IDE3LjM2QzE0LjA5IDE3LjQ3IDE0LjExIDE3LjYgMTQuMjEgMTcuNjhMMTUuMjcgMTguNUMxNS4yNSAxOC42NyAxNS4yNCAxOC44MyAxNS4yNCAxOUMxNS4yNCAxOS4xNyAxNS4yNSAxOS4zMyAxNS4yNyAxOS41TDE0LjIxIDIwLjMyQzE0LjEyIDIwLjQgMTQuMDkgMjAuNTMgMTQuMTUgMjAuNjRMMTUuMTUgMjIuMzdDMTUuMjEgMjIuNSAxNS4zNCAyMi41IDE1LjQ2IDIyLjVMMTYuNyAyMkMxNi45NiAyMi4xOCAxNy4yNCAyMi4zNSAxNy41NSAyMi40N0wxNy43NCAyMy43OUMxNy43NiAyMy45MSAxNy44NiAyNCAxOCAyNEgyMEMyMC4xMSAyNCAyMC4yMiAyMy45MSAyMC4yNCAyMy43OUwyMC40MyAyMi40N0MyMC43MyAyMi4zNCAyMSAyMi4xOCAyMS4yNyAyMkwyMi41IDIyLjVDMjIuNjMgMjIuNSAyMi43NiAyMi41IDIyLjgzIDIyLjM3TDIzLjgzIDIwLjY0QzIzLjg5IDIwLjUzIDIzLjg2IDIwLjQgMjMuNzcgMjAuMzJMMjIuNyAxOS41QzIyLjcyIDE5LjMzIDIyLjc0IDE5LjE3IDIyLjc0IDE5QzIyLjc0IDE4LjgzIDIyLjczIDE4LjY3IDIyLjcgMTguNUwyMy43NiAxNy42OEMyMy44NSAxNy42IDIzLjg4IDE3LjQ3IDIzLjgyIDE3LjM2TDIyLjgyIDE1LjYzQzIyLjc2IDE1LjUgMjIuNjMgMTUuNSAyMi41IDE1LjVMMjEuMjcgMTZDMjEgMTUuODIgMjAuNzMgMTUuNjUgMjAuNDIgMTUuNTNMMjAuMjMgMTQuMjFDMjAuMjIgMTQuMDkgMjAuMTEgMTQgMjAgMTRNMTkgMTcuNUMxOS44MyAxNy41IDIwLjUgMTguMTcgMjAuNSAxOUMyMC41IDE5LjgzIDE5LjgzIDIwLjUgMTkgMjAuNUMxOC4xNiAyMC41IDE3LjUgMTkuODMgMTcuNSAxOUMxNy41IDE4LjE3IDE4LjE3IDE3LjUgMTkgMTcuNVoiLz48L3N2Zz4=;labelPosition=left;align=right;" vertex="1" parent="1">
          <mxGeometry x="488.5" y="2165" width="60" height="60" as="geometry" />
        </mxCell>
        <mxCell id="UrNAwTuo9XHeN6puUlUN-114" value="" style="endArrow=classic;html=1;" edge="1" parent="1" source="UrNAwTuo9XHeN6puUlUN-115" target="UrNAwTuo9XHeN6puUlUN-113">
          <mxGeometry width="50" height="50" relative="1" as="geometry">
            <mxPoint x="507.5" y="2115" as="sourcePoint" />
            <mxPoint x="577.5" y="2225" as="targetPoint" />
          </mxGeometry>
        </mxCell>
        <mxCell id="UrNAwTuo9XHeN6puUlUN-115" value="tests.cpp" style="shape=image;verticalLabelPosition=middle;labelBackgroundColor=#ffffff;verticalAlign=middle;aspect=fixed;imageAspect=0;image=data:image/svg+xml,PHN2ZyB4bWxucz0iaHR0cDovL3d3dy53My5vcmcvMjAwMC9zdmciIHZpZXdCb3g9IjAgMCAyNCAyNCI+PHBhdGggZD0iTTYsMkEyLDIgMCAwLDAgNCw0VjIwQTIsMiAwIDAsMCA2LDIySDE4QTIsMiAwIDAsMCAyMCwyMFY4TDE0LDJINk02LDRIMTNWOUgxOFYyMEg2VjRNOCwxMlYxNEgxNlYxMkg4TTgsMTZWMThIMTNWMTZIOFoiLz48L3N2Zz4=;labelPosition=left;align=right;" vertex="1" parent="1">
          <mxGeometry x="488.5" y="2055" width="60" height="60" as="geometry" />
        </mxCell>
        <mxCell id="UrNAwTuo9XHeN6puUlUN-116" value="Compile" style="rounded=0;whiteSpace=wrap;html=1;labelBackgroundColor=none;fillColor=#f5f5f5;strokeColor=#666666;fontColor=#333333;" vertex="1" parent="1">
          <mxGeometry x="488.5" y="2125" width="60" height="20" as="geometry" />
        </mxCell>
        <mxCell id="UrNAwTuo9XHeN6puUlUN-117" value="Import" style="rounded=0;whiteSpace=wrap;html=1;labelBackgroundColor=none;fillColor=#f5f5f5;strokeColor=#666666;fontColor=#333333;" vertex="1" parent="1">
          <mxGeometry x="395" y="2035" width="60" height="20" as="geometry" />
        </mxCell>
        <mxCell id="UrNAwTuo9XHeN6puUlUN-118" value="" style="endArrow=classic;html=1;exitX=0.5;exitY=1;exitDx=0;exitDy=0;labelPosition=center;verticalLabelPosition=middle;align=center;verticalAlign=middle;entryX=0.75;entryY=0;entryDx=0;entryDy=0;" edge="1" parent="1" source="UrNAwTuo9XHeN6puUlUN-113" target="UrNAwTuo9XHeN6puUlUN-96">
          <mxGeometry x="0.0331" width="50" height="50" relative="1" as="geometry">
            <mxPoint x="330" y="2235" as="sourcePoint" />
            <mxPoint x="420" y="2295" as="targetPoint" />
            <mxPoint as="offset" />
          </mxGeometry>
        </mxCell>
        <mxCell id="UrNAwTuo9XHeN6puUlUN-119" value="Link" style="rounded=0;whiteSpace=wrap;html=1;labelBackgroundColor=none;fillColor=#f5f5f5;strokeColor=#666666;fontColor=#333333;" vertex="1" parent="1">
          <mxGeometry x="335" y="2245" width="195" height="20" as="geometry" />
        </mxCell>
      </root>
    </mxGraphModel>
  </diagram>
  <diagram id="2BZD18hJeYJDV2IKbLeS" name="Page-2">
    <mxGraphModel dx="1123" dy="544" grid="1" gridSize="10" guides="1" tooltips="1" connect="1" arrows="1" fold="1" page="1" pageScale="1" pageWidth="850" pageHeight="1100" math="0" shadow="0">
      <root>
        <mxCell id="i7acF-kNVX32G1qDXZDl-0" />
        <mxCell id="i7acF-kNVX32G1qDXZDl-1" parent="i7acF-kNVX32G1qDXZDl-0" />
        <mxCell id="i7acF-kNVX32G1qDXZDl-2" value="main.o" style="shape=image;verticalLabelPosition=top;labelBackgroundColor=#ffffff;verticalAlign=bottom;aspect=fixed;imageAspect=0;image=data:image/svg+xml,PHN2ZyB4bWxucz0iaHR0cDovL3d3dy53My5vcmcvMjAwMC9zdmciIHZpZXdCb3g9IjAgMCAyNCAyNCI+PHBhdGggZD0iTTYgMkM0Ljg5IDIgNCAyLjkgNCA0VjIwQzQgMjEuMTEgNC44OSAyMiA2IDIySDEyVjIwSDZWNEgxM1Y5SDE4VjEySDIwVjhMMTQgMk0xOCAxNEMxNy44NyAxNCAxNy43NiAxNC4wOSAxNy43NCAxNC4yMUwxNy41NSAxNS41M0MxNy4yNSAxNS42NiAxNi45NiAxNS44MiAxNi43IDE2TDE1LjQ2IDE1LjVDMTUuMzUgMTUuNSAxNS4yMiAxNS41IDE1LjE1IDE1LjYzTDE0LjE1IDE3LjM2QzE0LjA5IDE3LjQ3IDE0LjExIDE3LjYgMTQuMjEgMTcuNjhMMTUuMjcgMTguNUMxNS4yNSAxOC42NyAxNS4yNCAxOC44MyAxNS4yNCAxOUMxNS4yNCAxOS4xNyAxNS4yNSAxOS4zMyAxNS4yNyAxOS41TDE0LjIxIDIwLjMyQzE0LjEyIDIwLjQgMTQuMDkgMjAuNTMgMTQuMTUgMjAuNjRMMTUuMTUgMjIuMzdDMTUuMjEgMjIuNSAxNS4zNCAyMi41IDE1LjQ2IDIyLjVMMTYuNyAyMkMxNi45NiAyMi4xOCAxNy4yNCAyMi4zNSAxNy41NSAyMi40N0wxNy43NCAyMy43OUMxNy43NiAyMy45MSAxNy44NiAyNCAxOCAyNEgyMEMyMC4xMSAyNCAyMC4yMiAyMy45MSAyMC4yNCAyMy43OUwyMC40MyAyMi40N0MyMC43MyAyMi4zNCAyMSAyMi4xOCAyMS4yNyAyMkwyMi41IDIyLjVDMjIuNjMgMjIuNSAyMi43NiAyMi41IDIyLjgzIDIyLjM3TDIzLjgzIDIwLjY0QzIzLjg5IDIwLjUzIDIzLjg2IDIwLjQgMjMuNzcgMjAuMzJMMjIuNyAxOS41QzIyLjcyIDE5LjMzIDIyLjc0IDE5LjE3IDIyLjc0IDE5QzIyLjc0IDE4LjgzIDIyLjczIDE4LjY3IDIyLjcgMTguNUwyMy43NiAxNy42OEMyMy44NSAxNy42IDIzLjg4IDE3LjQ3IDIzLjgyIDE3LjM2TDIyLjgyIDE1LjYzQzIyLjc2IDE1LjUgMjIuNjMgMTUuNSAyMi41IDE1LjVMMjEuMjcgMTZDMjEgMTUuODIgMjAuNzMgMTUuNjUgMjAuNDIgMTUuNTNMMjAuMjMgMTQuMjFDMjAuMjIgMTQuMDkgMjAuMTEgMTQgMjAgMTRNMTkgMTcuNUMxOS44MyAxNy41IDIwLjUgMTguMTcgMjAuNSAxOUMyMC41IDE5LjgzIDE5LjgzIDIwLjUgMTkgMjAuNUMxOC4xNiAyMC41IDE3LjUgMTkuODMgMTcuNSAxOUMxNy41IDE4LjE3IDE4LjE3IDE3LjUgMTkgMTcuNVoiLz48L3N2Zz4=;labelPosition=center;align=center;" vertex="1" parent="i7acF-kNVX32G1qDXZDl-1">
          <mxGeometry x="320" y="120" width="60" height="60" as="geometry" />
        </mxCell>
        <mxCell id="i7acF-kNVX32G1qDXZDl-3" value="" style="endArrow=classic;html=1;labelPosition=center;verticalLabelPosition=top;align=center;verticalAlign=bottom;" edge="1" parent="i7acF-kNVX32G1qDXZDl-1" source="i7acF-kNVX32G1qDXZDl-5" target="i7acF-kNVX32G1qDXZDl-2">
          <mxGeometry width="50" height="50" relative="1" as="geometry">
            <mxPoint x="150" y="190" as="sourcePoint" />
            <mxPoint x="220" y="300" as="targetPoint" />
          </mxGeometry>
        </mxCell>
        <mxCell id="i7acF-kNVX32G1qDXZDl-4" value="program.exe" style="shape=image;verticalLabelPosition=top;labelBackgroundColor=#ffffff;verticalAlign=bottom;aspect=fixed;imageAspect=0;image=data:image/svg+xml,PHN2ZyB4bWxucz0iaHR0cDovL3d3dy53My5vcmcvMjAwMC9zdmciIHZpZXdCb3g9IjAgMCAyNCAyNCI+PHBhdGggZD0iTTYgMkM0Ljg5IDIgNCAyLjkgNCA0VjIwQzQgMjEuMTEgNC44OSAyMiA2IDIySDEyVjIwSDZWNEgxM1Y5SDE4VjEySDIwVjhMMTQgMk0xOCAxNEMxNy44NyAxNCAxNy43NiAxNC4wOSAxNy43NCAxNC4yMUwxNy41NSAxNS41M0MxNy4yNSAxNS42NiAxNi45NiAxNS44MiAxNi43IDE2TDE1LjQ2IDE1LjVDMTUuMzUgMTUuNSAxNS4yMiAxNS41IDE1LjE1IDE1LjYzTDE0LjE1IDE3LjM2QzE0LjA5IDE3LjQ3IDE0LjExIDE3LjYgMTQuMjEgMTcuNjhMMTUuMjcgMTguNUMxNS4yNSAxOC42NyAxNS4yNCAxOC44MyAxNS4yNCAxOUMxNS4yNCAxOS4xNyAxNS4yNSAxOS4zMyAxNS4yNyAxOS41TDE0LjIxIDIwLjMyQzE0LjEyIDIwLjQgMTQuMDkgMjAuNTMgMTQuMTUgMjAuNjRMMTUuMTUgMjIuMzdDMTUuMjEgMjIuNSAxNS4zNCAyMi41IDE1LjQ2IDIyLjVMMTYuNyAyMkMxNi45NiAyMi4xOCAxNy4yNCAyMi4zNSAxNy41NSAyMi40N0wxNy43NCAyMy43OUMxNy43NiAyMy45MSAxNy44NiAyNCAxOCAyNEgyMEMyMC4xMSAyNCAyMC4yMiAyMy45MSAyMC4yNCAyMy43OUwyMC40MyAyMi40N0MyMC43MyAyMi4zNCAyMSAyMi4xOCAyMS4yNyAyMkwyMi41IDIyLjVDMjIuNjMgMjIuNSAyMi43NiAyMi41IDIyLjgzIDIyLjM3TDIzLjgzIDIwLjY0QzIzLjg5IDIwLjUzIDIzLjg2IDIwLjQgMjMuNzcgMjAuMzJMMjIuNyAxOS41QzIyLjcyIDE5LjMzIDIyLjc0IDE5LjE3IDIyLjc0IDE5QzIyLjc0IDE4LjgzIDIyLjczIDE4LjY3IDIyLjcgMTguNUwyMy43NiAxNy42OEMyMy44NSAxNy42IDIzLjg4IDE3LjQ3IDIzLjgyIDE3LjM2TDIyLjgyIDE1LjYzQzIyLjc2IDE1LjUgMjIuNjMgMTUuNSAyMi41IDE1LjVMMjEuMjcgMTZDMjEgMTUuODIgMjAuNzMgMTUuNjUgMjAuNDIgMTUuNTNMMjAuMjMgMTQuMjFDMjAuMjIgMTQuMDkgMjAuMTEgMTQgMjAgMTRNMTkgMTcuNUMxOS44MyAxNy41IDIwLjUgMTguMTcgMjAuNSAxOUMyMC41IDE5LjgzIDE5LjgzIDIwLjUgMTkgMjAuNUMxOC4xNiAyMC41IDE3LjUgMTkuODMgMTcuNSAxOUMxNy41IDE4LjE3IDE4LjE3IDE3LjUgMTkgMTcuNVoiLz48L3N2Zz4=;labelPosition=center;align=center;" vertex="1" parent="i7acF-kNVX32G1qDXZDl-1">
          <mxGeometry x="520" y="120" width="60" height="60" as="geometry" />
        </mxCell>
        <mxCell id="i7acF-kNVX32G1qDXZDl-5" value="main.cpp" style="shape=image;verticalLabelPosition=top;labelBackgroundColor=#ffffff;verticalAlign=bottom;aspect=fixed;imageAspect=0;image=data:image/svg+xml,PHN2ZyB4bWxucz0iaHR0cDovL3d3dy53My5vcmcvMjAwMC9zdmciIHZpZXdCb3g9IjAgMCAyNCAyNCI+PHBhdGggZD0iTTYsMkEyLDIgMCAwLDAgNCw0VjIwQTIsMiAwIDAsMCA2LDIySDE4QTIsMiAwIDAsMCAyMCwyMFY4TDE0LDJINk02LDRIMTNWOUgxOFYyMEg2VjRNOCwxMlYxNEgxNlYxMkg4TTgsMTZWMThIMTNWMTZIOFoiLz48L3N2Zz4=;labelPosition=center;align=center;" vertex="1" parent="i7acF-kNVX32G1qDXZDl-1">
          <mxGeometry x="120" y="120" width="60" height="60" as="geometry" />
        </mxCell>
        <mxCell id="i7acF-kNVX32G1qDXZDl-6" value="" style="endArrow=classic;html=1;labelPosition=center;verticalLabelPosition=top;align=center;verticalAlign=bottom;" edge="1" parent="i7acF-kNVX32G1qDXZDl-1" source="i7acF-kNVX32G1qDXZDl-2" target="i7acF-kNVX32G1qDXZDl-4">
          <mxGeometry width="50" height="50" relative="1" as="geometry">
            <mxPoint x="160" y="200" as="sourcePoint" />
            <mxPoint x="160" y="240" as="targetPoint" />
            <mxPoint as="offset" />
          </mxGeometry>
        </mxCell>
        <mxCell id="i7acF-kNVX32G1qDXZDl-7" value="Compile" style="rounded=0;whiteSpace=wrap;html=1;labelBackgroundColor=none;fillColor=#f5f5f5;strokeColor=#666666;fontColor=#333333;" vertex="1" parent="i7acF-kNVX32G1qDXZDl-1">
          <mxGeometry x="220" y="140" width="60" height="20" as="geometry" />
        </mxCell>
        <mxCell id="i7acF-kNVX32G1qDXZDl-8" value="Link" style="rounded=0;whiteSpace=wrap;html=1;labelBackgroundColor=none;fillColor=#f5f5f5;strokeColor=#666666;fontColor=#333333;" vertex="1" parent="i7acF-kNVX32G1qDXZDl-1">
          <mxGeometry x="420" y="140" width="60" height="20" as="geometry" />
        </mxCell>
        <mxCell id="i7acF-kNVX32G1qDXZDl-13" value="" style="endArrow=classic;html=1;labelPosition=center;verticalLabelPosition=top;align=center;verticalAlign=bottom;" edge="1" parent="i7acF-kNVX32G1qDXZDl-1" source="i7acF-kNVX32G1qDXZDl-15" target="i7acF-kNVX32G1qDXZDl-14">
          <mxGeometry width="50" height="50" relative="1" as="geometry">
            <mxPoint x="150" y="330" as="sourcePoint" />
            <mxPoint x="320" y="290" as="targetPoint" />
          </mxGeometry>
        </mxCell>
        <mxCell id="i7acF-kNVX32G1qDXZDl-14" value="program.exe" style="shape=image;verticalLabelPosition=top;labelBackgroundColor=#ffffff;verticalAlign=bottom;aspect=fixed;imageAspect=0;image=data:image/svg+xml,PHN2ZyB4bWxucz0iaHR0cDovL3d3dy53My5vcmcvMjAwMC9zdmciIHZpZXdCb3g9IjAgMCAyNCAyNCI+PHBhdGggZD0iTTYgMkM0Ljg5IDIgNCAyLjkgNCA0VjIwQzQgMjEuMTEgNC44OSAyMiA2IDIySDEyVjIwSDZWNEgxM1Y5SDE4VjEySDIwVjhMMTQgMk0xOCAxNEMxNy44NyAxNCAxNy43NiAxNC4wOSAxNy43NCAxNC4yMUwxNy41NSAxNS41M0MxNy4yNSAxNS42NiAxNi45NiAxNS44MiAxNi43IDE2TDE1LjQ2IDE1LjVDMTUuMzUgMTUuNSAxNS4yMiAxNS41IDE1LjE1IDE1LjYzTDE0LjE1IDE3LjM2QzE0LjA5IDE3LjQ3IDE0LjExIDE3LjYgMTQuMjEgMTcuNjhMMTUuMjcgMTguNUMxNS4yNSAxOC42NyAxNS4yNCAxOC44MyAxNS4yNCAxOUMxNS4yNCAxOS4xNyAxNS4yNSAxOS4zMyAxNS4yNyAxOS41TDE0LjIxIDIwLjMyQzE0LjEyIDIwLjQgMTQuMDkgMjAuNTMgMTQuMTUgMjAuNjRMMTUuMTUgMjIuMzdDMTUuMjEgMjIuNSAxNS4zNCAyMi41IDE1LjQ2IDIyLjVMMTYuNyAyMkMxNi45NiAyMi4xOCAxNy4yNCAyMi4zNSAxNy41NSAyMi40N0wxNy43NCAyMy43OUMxNy43NiAyMy45MSAxNy44NiAyNCAxOCAyNEgyMEMyMC4xMSAyNCAyMC4yMiAyMy45MSAyMC4yNCAyMy43OUwyMC40MyAyMi40N0MyMC43MyAyMi4zNCAyMSAyMi4xOCAyMS4yNyAyMkwyMi41IDIyLjVDMjIuNjMgMjIuNSAyMi43NiAyMi41IDIyLjgzIDIyLjM3TDIzLjgzIDIwLjY0QzIzLjg5IDIwLjUzIDIzLjg2IDIwLjQgMjMuNzcgMjAuMzJMMjIuNyAxOS41QzIyLjcyIDE5LjMzIDIyLjc0IDE5LjE3IDIyLjc0IDE5QzIyLjc0IDE4LjgzIDIyLjczIDE4LjY3IDIyLjcgMTguNUwyMy43NiAxNy42OEMyMy44NSAxNy42IDIzLjg4IDE3LjQ3IDIzLjgyIDE3LjM2TDIyLjgyIDE1LjYzQzIyLjc2IDE1LjUgMjIuNjMgMTUuNSAyMi41IDE1LjVMMjEuMjcgMTZDMjEgMTUuODIgMjAuNzMgMTUuNjUgMjAuNDIgMTUuNTNMMjAuMjMgMTQuMjFDMjAuMjIgMTQuMDkgMjAuMTEgMTQgMjAgMTRNMTkgMTcuNUMxOS44MyAxNy41IDIwLjUgMTguMTcgMjAuNSAxOUMyMC41IDE5LjgzIDE5LjgzIDIwLjUgMTkgMjAuNUMxOC4xNiAyMC41IDE3LjUgMTkuODMgMTcuNSAxOUMxNy41IDE4LjE3IDE4LjE3IDE3LjUgMTkgMTcuNVoiLz48L3N2Zz4=;labelPosition=center;align=center;" vertex="1" parent="i7acF-kNVX32G1qDXZDl-1">
          <mxGeometry x="330" y="260" width="60" height="60" as="geometry" />
        </mxCell>
        <mxCell id="i7acF-kNVX32G1qDXZDl-15" value="main.cpp" style="shape=image;verticalLabelPosition=top;labelBackgroundColor=#ffffff;verticalAlign=bottom;aspect=fixed;imageAspect=0;image=data:image/svg+xml,PHN2ZyB4bWxucz0iaHR0cDovL3d3dy53My5vcmcvMjAwMC9zdmciIHZpZXdCb3g9IjAgMCAyNCAyNCI+PHBhdGggZD0iTTYsMkEyLDIgMCAwLDAgNCw0VjIwQTIsMiAwIDAsMCA2LDIySDE4QTIsMiAwIDAsMCAyMCwyMFY4TDE0LDJINk02LDRIMTNWOUgxOFYyMEg2VjRNOCwxMlYxNEgxNlYxMkg4TTgsMTZWMThIMTNWMTZIOFoiLz48L3N2Zz4=;labelPosition=center;align=center;" vertex="1" parent="i7acF-kNVX32G1qDXZDl-1">
          <mxGeometry x="120" y="260" width="60" height="60" as="geometry" />
        </mxCell>
        <mxCell id="i7acF-kNVX32G1qDXZDl-17" value="Compile" style="rounded=0;whiteSpace=wrap;html=1;labelBackgroundColor=none;fillColor=#f5f5f5;strokeColor=#666666;fontColor=#333333;" vertex="1" parent="i7acF-kNVX32G1qDXZDl-1">
          <mxGeometry x="220" y="280" width="60" height="20" as="geometry" />
        </mxCell>
      </root>
    </mxGraphModel>
  </diagram>
</mxfile>
